<svg id="svg" version="1.1" xmlns="http://www.w3.org/2000/svg" xmlns:xlink="http://www.w3.org/1999/xlink" width="400" height="400" viewBox="0, 0, 400,400"><g id="svgg"><path id="path0" d="M168.800 145.635 C 154.871 146.169,150.729 147.220,147.073 151.152 C 143.698 154.780,142.360 158.844,140.405 171.400 C 140.165 172.940,139.807 175.190,139.609 176.400 C 139.007 180.088,137.852 188.119,136.445 198.400 C 135.524 205.126,135.135 207.917,134.800 210.200 C 134.606 211.520,134.250 214.040,134.009 215.800 C 133.768 217.560,133.404 220.170,133.200 221.600 C 132.996 223.030,132.630 225.640,132.387 227.400 C 131.830 231.431,131.268 235.459,130.796 238.800 C 130.594 240.230,130.232 242.840,129.991 244.600 C 129.750 246.360,129.394 248.880,129.200 250.200 C 129.005 251.520,128.633 254.310,128.371 256.400 C 127.893 260.221,127.232 263.288,126.461 265.268 C 126.044 266.337,119.976 273.566,117.642 275.775 C 116.959 276.421,116.400 277.109,116.400 277.305 C 116.400 277.898,151.061 277.500,151.660 276.900 C 152.060 276.500,152.004 276.395,151.380 276.374 C 150.951 276.359,151.586 276.082,152.790 275.759 C 157.044 274.616,160.562 271.880,162.273 268.383 C 164.784 263.254,165.796 258.322,168.431 238.400 C 168.649 236.750,168.989 234.230,169.186 232.800 C 169.383 231.370,169.737 228.805,169.972 227.100 C 170.208 225.395,170.592 222.605,170.828 220.900 C 171.782 213.984,171.991 212.465,172.410 209.400 C 172.651 207.640,173.005 205.120,173.197 203.800 C 173.389 202.480,173.757 199.780,174.015 197.800 C 175.675 185.079,176.735 183.200,182.250 183.200 L 184.939 183.200 184.146 184.100 C 183.285 185.077,182.390 186.949,182.416 187.719 C 182.426 187.983,182.831 187.399,183.316 186.419 C 185.025 182.976,182.334 183.209,220.911 183.162 C 255.815 183.119,262.276 182.946,260.400 182.101 L 259.400 181.651 260.440 181.625 C 262.871 181.566,267.085 179.635,269.032 177.688 C 272.930 173.790,275.253 166.267,277.210 151.200 C 277.949 145.516,277.723 145.819,281.330 145.683 L 284.444 145.566 284.230 148.083 C 284.085 149.787,284.130 150.277,284.368 149.600 C 284.562 149.050,284.738 147.835,284.760 146.900 L 284.800 145.200 230.500 145.276 C 200.635 145.317,172.870 145.479,168.800 145.635 M283.411 152.872 C 283.248 154.122,283.200 155.382,283.304 155.672 C 283.408 155.962,283.626 155.178,283.789 153.928 C 283.952 152.678,284.000 151.418,283.896 151.128 C 283.792 150.838,283.574 151.622,283.411 152.872 M282.611 158.075 C 282.449 159.106,282.402 160.186,282.506 160.475 C 282.610 160.764,282.827 160.156,282.989 159.125 C 283.151 158.094,283.198 157.014,283.094 156.725 C 282.990 156.436,282.773 157.044,282.611 158.075 M281.903 162.000 C 281.742 162.550,281.620 163.450,281.631 164.000 L 281.651 165.000 282.044 164.015 C 282.260 163.474,282.382 162.574,282.316 162.015 L 282.195 161.000 281.903 162.000 M280.618 167.833 C 278.716 174.980,275.241 179.079,269.422 181.043 C 267.872 181.566,267.861 181.582,269.167 181.392 C 273.129 180.816,277.186 177.447,279.167 173.090 C 280.560 170.027,281.746 166.238,281.522 165.566 C 281.430 165.291,281.024 166.311,280.618 167.833 M264.200 182.000 C 263.053 182.292,263.071 182.306,264.600 182.325 C 265.480 182.335,266.560 182.189,267.000 182.000 C 268.053 181.547,265.979 181.547,264.200 182.000 M181.778 189.778 C 181.627 190.581,181.604 191.337,181.726 191.460 C 181.848 191.582,182.072 191.025,182.222 190.222 C 182.373 189.419,182.396 188.663,182.274 188.540 C 182.152 188.418,181.928 188.975,181.778 189.778 M181.100 193.150 C 180.935 193.893,180.816 195.063,180.836 195.750 L 180.872 197.000 181.258 195.658 C 181.471 194.920,181.589 193.750,181.522 193.058 L 181.399 191.800 181.100 193.150 M180.211 199.672 C 180.048 200.922,180.000 202.182,180.104 202.472 C 180.208 202.762,180.426 201.978,180.589 200.728 C 180.752 199.478,180.800 198.218,180.696 197.928 C 180.592 197.638,180.374 198.422,180.211 199.672 M179.433 205.272 C 179.258 206.522,179.200 207.782,179.305 208.072 C 179.569 208.805,180.109 205.146,179.912 203.963 C 179.812 203.363,179.631 203.858,179.433 205.272 M178.611 211.272 C 178.448 212.522,178.400 213.782,178.504 214.072 C 178.608 214.362,178.826 213.578,178.989 212.328 C 179.152 211.078,179.200 209.818,179.096 209.528 C 178.992 209.238,178.774 210.022,178.611 211.272 M177.833 216.872 C 177.658 218.122,177.600 219.382,177.705 219.672 C 177.969 220.405,178.509 216.746,178.312 215.563 C 178.212 214.963,178.031 215.458,177.833 216.872 M177.011 222.872 C 176.848 224.122,176.800 225.382,176.904 225.672 C 177.008 225.962,177.226 225.178,177.389 223.928 C 177.552 222.678,177.600 221.418,177.496 221.128 C 177.392 220.838,177.174 221.622,177.011 222.872 M176.211 228.472 C 176.048 229.722,176.000 230.982,176.104 231.272 C 176.208 231.562,176.426 230.778,176.589 229.528 C 176.752 228.278,176.800 227.018,176.696 226.728 C 176.592 226.438,176.374 227.222,176.211 228.472 M175.500 233.550 C 175.335 234.293,175.218 235.553,175.240 236.350 L 175.280 237.800 175.656 236.200 C 175.863 235.320,175.980 234.060,175.916 233.400 L 175.799 232.200 175.500 233.550 M174.704 239.400 C 174.542 240.280,174.425 241.630,174.445 242.400 L 174.480 243.800 174.857 242.200 C 175.063 241.320,175.180 239.970,175.116 239.200 L 175.000 237.800 174.704 239.400 M173.820 246.518 C 173.645 248.013,173.600 249.333,173.718 249.452 C 174.011 249.744,174.522 245.495,174.308 244.553 C 174.213 244.139,173.994 245.023,173.820 246.518 M173.019 252.118 C 172.845 253.393,172.802 254.535,172.922 254.655 C 173.222 254.955,173.717 251.471,173.506 250.547 C 173.412 250.136,173.193 250.843,173.019 252.118 M172.268 256.600 C 169.831 270.039,166.275 274.440,156.400 276.237 L 153.400 276.783 155.800 276.620 C 161.111 276.259,166.424 273.425,168.506 269.842 C 170.368 266.640,173.091 257.483,172.709 255.707 C 172.626 255.318,172.427 255.720,172.268 256.600 " stroke="none" fill="#fb944c" fill-rule="evenodd"></path><path id="path1" d="M0.000 200.000 L 0.000 400.000 200.000 400.000 L 400.000 400.000 400.000 200.000 L 400.000 0.000 200.000 0.000 L 0.000 0.000 0.000 200.000 M274.535 145.064 L 284.800 145.328 284.800 146.687 C 284.800 147.434,284.635 148.800,284.434 149.723 C 284.233 150.645,283.860 152.930,283.605 154.800 C 281.486 170.357,278.480 177.329,272.686 180.127 C 267.004 182.872,261.410 183.200,220.302 183.200 C 185.149 183.200,185.504 183.183,184.078 184.908 C 182.791 186.465,181.917 190.477,180.400 201.800 C 180.164 203.560,179.804 206.170,179.600 207.600 C 179.396 209.030,179.036 211.640,178.800 213.400 C 178.564 215.160,178.206 217.770,178.004 219.200 C 177.078 225.760,176.154 232.442,175.600 236.600 C 175.380 238.250,175.012 240.995,174.783 242.700 C 174.553 244.405,174.184 247.150,173.962 248.800 C 171.075 270.273,167.466 275.452,154.400 276.879 C 150.082 277.350,109.200 277.793,109.200 277.369 C 109.200 277.216,110.595 275.563,112.300 273.695 C 120.234 265.003,120.088 265.349,121.993 250.800 C 122.238 248.930,122.599 246.320,122.795 245.000 C 122.992 243.680,123.350 241.160,123.591 239.400 C 123.832 237.640,124.196 235.030,124.400 233.600 C 124.604 232.170,124.968 229.560,125.209 227.800 C 125.450 226.040,125.806 223.520,126.000 222.200 C 126.194 220.880,126.543 218.405,126.776 216.700 C 127.009 214.995,127.391 212.205,127.624 210.500 C 127.857 208.795,128.206 206.320,128.400 205.000 C 128.594 203.680,128.950 201.160,129.191 199.400 C 129.432 197.640,129.794 195.030,129.996 193.600 C 130.198 192.170,130.539 189.740,130.754 188.200 C 131.858 180.286,132.070 178.828,132.405 176.800 C 132.606 175.590,132.970 173.340,133.215 171.800 C 135.272 158.863,136.349 155.241,139.234 151.569 C 142.888 146.917,147.482 145.772,164.600 145.244 C 177.597 144.844,260.680 144.708,274.535 145.064 " stroke="none" fill="#fbfbfb" fill-rule="evenodd"></path><path id="path2" d="M147.154 147.005 C 139.326 149.151,136.248 154.339,133.988 169.200 C 133.737 170.850,133.380 173.010,133.195 174.000 C 133.010 174.990,132.655 177.240,132.406 179.000 C 132.156 180.760,131.794 183.280,131.600 184.600 C 131.406 185.920,131.057 188.395,130.824 190.100 C 130.591 191.805,130.209 194.595,129.976 196.300 C 129.743 198.005,129.394 200.480,129.200 201.800 C 129.006 203.120,128.650 205.640,128.409 207.400 C 128.168 209.160,127.806 211.770,127.604 213.200 C 127.132 216.541,126.570 220.569,126.013 224.600 C 125.770 226.360,125.404 228.970,125.200 230.400 C 124.996 231.830,124.632 234.440,124.391 236.200 C 124.150 237.960,123.792 240.480,123.595 241.800 C 123.399 243.120,123.039 245.730,122.797 247.600 C 122.554 249.470,122.186 251.869,121.978 252.931 C 121.770 253.992,121.600 255.578,121.600 256.453 C 121.600 257.329,121.410 258.890,121.178 259.923 C 119.932 265.467,119.415 266.343,113.606 272.734 C 108.844 277.976,108.941 277.600,112.351 277.600 L 115.101 277.600 118.128 274.500 C 126.487 265.939,126.761 265.360,128.402 252.800 C 128.646 250.930,129.009 248.230,129.209 246.800 C 129.409 245.370,129.769 242.760,130.010 241.000 C 130.251 239.240,130.606 236.720,130.800 235.400 C 131.157 232.971,131.734 228.905,132.446 223.800 C 132.661 222.260,133.002 219.830,133.204 218.400 C 133.665 215.136,134.740 207.360,135.610 201.000 C 135.851 199.240,136.206 196.720,136.400 195.400 C 136.594 194.080,136.950 191.560,137.191 189.800 C 137.799 185.354,138.362 181.442,138.815 178.500 C 139.861 171.712,140.067 170.475,140.420 168.894 C 140.629 167.956,140.800 166.744,140.800 166.200 C 140.800 165.051,141.392 162.453,142.476 158.850 C 144.481 152.184,146.920 149.355,152.800 146.876 C 154.301 146.243,149.536 146.352,147.154 147.005 " stroke="none" fill="#0bfaf9" fill-rule="evenodd"></path><path id="path3" d="M278.014 146.374 C 277.786 146.799,277.600 147.669,277.600 148.307 C 277.600 148.945,277.433 150.442,277.229 151.633 C 277.025 152.825,276.660 155.060,276.417 156.600 C 274.563 168.362,272.519 174.201,269.032 177.688 C 267.085 179.635,262.871 181.566,260.440 181.625 L 259.400 181.651 260.400 182.058 C 261.464 182.490,265.736 181.977,269.237 180.995 C 277.015 178.815,280.332 172.987,282.779 157.200 C 283.000 155.770,283.354 153.520,283.565 152.200 C 283.776 150.880,284.067 148.855,284.212 147.700 L 284.475 145.600 281.452 145.600 C 278.872 145.600,278.367 145.714,278.014 146.374 M178.317 183.820 C 176.362 184.881,175.214 188.612,174.015 197.800 C 173.757 199.780,173.389 202.480,173.197 203.800 C 173.005 205.120,172.657 207.595,172.424 209.300 C 172.191 211.005,171.808 213.795,171.572 215.500 C 171.337 217.205,170.983 219.770,170.786 221.200 C 170.589 222.630,170.229 225.240,169.986 227.000 C 169.743 228.760,169.383 231.370,169.186 232.800 C 168.989 234.230,168.649 236.750,168.431 238.400 C 165.796 258.322,164.784 263.254,162.273 268.383 C 160.557 271.889,156.994 274.655,152.818 275.724 C 149.528 276.566,151.796 276.925,156.035 276.233 C 168.012 274.278,170.903 269.280,173.989 245.200 C 174.568 240.687,175.146 236.381,175.600 233.200 C 175.942 230.806,176.241 228.655,177.214 221.600 C 177.411 220.170,177.771 217.560,178.014 215.800 C 178.257 214.040,178.623 211.385,178.828 209.900 C 179.032 208.415,179.370 205.985,179.577 204.500 C 179.785 203.015,180.157 200.270,180.405 198.400 C 181.480 190.297,182.689 185.620,184.102 184.100 L 184.939 183.200 182.170 183.216 C 180.520 183.226,178.962 183.470,178.317 183.820 " stroke="none" fill="#fc0b09" fill-rule="evenodd"></path><path id="path4" d="M166.600 145.273 C 161.980 145.462,156.940 145.622,155.400 145.630 C 151.722 145.649,148.713 146.281,151.800 146.386 C 153.595 146.447,153.697 146.497,152.800 146.876 C 146.921 149.354,144.628 152.012,142.390 158.940 C 141.921 160.391,141.612 161.899,141.703 162.290 C 141.800 162.706,141.999 162.337,142.184 161.400 C 143.980 152.270,150.245 146.443,158.320 146.390 C 159.134 146.385,160.520 146.184,161.400 145.944 C 162.496 145.644,180.064 145.420,217.200 145.232 L 271.400 144.957 223.200 144.944 C 196.690 144.937,171.220 145.085,166.600 145.273 M146.800 146.800 C 146.005 147.314,147.004 147.314,148.200 146.800 L 149.000 146.456 148.200 146.434 C 147.760 146.422,147.130 146.587,146.800 146.800 M141.727 149.199 C 139.478 150.853,136.319 155.253,136.937 155.870 C 137.045 155.978,137.486 155.287,137.918 154.333 C 138.746 152.506,140.595 150.360,142.600 148.899 C 143.260 148.419,143.700 148.020,143.579 148.013 C 143.457 148.006,142.624 148.540,141.727 149.199 M136.200 157.200 C 136.050 157.673,136.017 158.150,136.127 158.260 C 136.237 158.370,136.450 158.073,136.600 157.600 C 136.750 157.127,136.783 156.650,136.673 156.540 C 136.563 156.430,136.350 156.727,136.200 157.200 M135.400 159.600 C 135.250 160.073,135.217 160.550,135.327 160.660 C 135.437 160.770,135.650 160.473,135.800 160.000 C 135.950 159.527,135.983 159.050,135.873 158.940 C 135.763 158.830,135.550 159.127,135.400 159.600 M134.622 163.022 C 134.472 163.825,134.438 164.572,134.548 164.682 C 134.658 164.792,134.872 164.225,135.022 163.422 C 135.173 162.619,135.206 161.873,135.096 161.763 C 134.986 161.653,134.773 162.219,134.622 163.022 M141.097 164.000 C 140.940 164.550,140.825 165.540,140.842 166.200 L 140.872 167.400 141.258 166.058 C 141.471 165.320,141.586 164.330,141.514 163.858 C 141.392 163.054,141.366 163.063,141.097 164.000 M133.782 167.782 C 133.629 168.802,133.602 169.735,133.722 169.855 C 133.842 169.975,134.065 169.239,134.218 168.218 C 134.371 167.198,134.398 166.265,134.278 166.145 C 134.158 166.025,133.935 166.761,133.782 167.782 M140.297 168.800 C 140.140 169.350,140.027 170.430,140.046 171.200 L 140.080 172.600 140.455 171.000 C 140.905 169.077,140.767 167.158,140.297 168.800 M133.000 172.800 C 132.846 173.710,132.811 174.544,132.921 174.654 C 133.031 174.764,133.246 174.110,133.400 173.200 C 133.554 172.290,133.589 171.456,133.479 171.346 C 133.369 171.236,133.154 171.890,133.000 172.800 M139.411 174.475 C 139.249 175.506,139.202 176.586,139.306 176.875 C 139.410 177.164,139.627 176.556,139.789 175.525 C 139.951 174.494,139.998 173.414,139.894 173.125 C 139.790 172.836,139.573 173.444,139.411 174.475 M132.182 177.782 C 132.029 178.802,131.994 179.727,132.104 179.837 C 132.214 179.947,132.429 179.202,132.582 178.182 C 132.735 177.161,132.770 176.237,132.660 176.127 C 132.550 176.017,132.335 176.761,132.182 177.782 M138.700 178.750 C 138.535 179.493,138.416 180.663,138.436 181.350 L 138.472 182.600 138.858 181.258 C 139.071 180.520,139.189 179.350,139.122 178.658 L 138.999 177.400 138.700 178.750 M131.400 183.200 C 131.245 184.328,131.208 185.341,131.318 185.451 C 131.428 185.561,131.645 184.728,131.800 183.600 C 131.955 182.472,131.992 181.459,131.882 181.349 C 131.772 181.239,131.555 182.072,131.400 183.200 M137.900 184.350 C 137.735 185.093,137.616 186.263,137.636 186.950 L 137.672 188.200 138.058 186.858 C 138.271 186.120,138.389 184.950,138.322 184.258 L 138.199 183.000 137.900 184.350 M130.600 188.800 C 130.445 189.928,130.408 190.941,130.518 191.051 C 130.628 191.161,130.845 190.328,131.000 189.200 C 131.155 188.072,131.192 187.059,131.082 186.949 C 130.972 186.839,130.755 187.672,130.600 188.800 M137.011 190.872 C 136.848 192.122,136.800 193.382,136.904 193.672 C 137.008 193.962,137.226 193.178,137.389 191.928 C 137.552 190.678,137.600 189.418,137.496 189.128 C 137.392 188.838,137.174 189.622,137.011 190.872 M129.788 194.538 C 129.639 195.535,129.599 196.586,129.700 196.875 C 129.800 197.164,130.018 196.443,130.182 195.274 C 130.347 194.105,130.387 193.054,130.271 192.938 C 130.155 192.822,129.938 193.542,129.788 194.538 M136.211 196.472 C 136.048 197.722,136.000 198.982,136.104 199.272 C 136.208 199.562,136.426 198.778,136.589 197.528 C 136.752 196.278,136.800 195.018,136.696 194.728 C 136.592 194.438,136.374 195.222,136.211 196.472 M129.000 200.400 C 128.845 201.528,128.808 202.541,128.918 202.651 C 129.028 202.761,129.245 201.928,129.400 200.800 C 129.555 199.672,129.592 198.659,129.482 198.549 C 129.372 198.439,129.155 199.272,129.000 200.400 M135.504 201.400 C 135.342 202.280,135.225 203.630,135.245 204.400 L 135.280 205.800 135.657 204.200 C 135.863 203.320,135.980 201.970,135.916 201.200 L 135.800 199.800 135.504 201.400 M128.200 206.000 C 128.045 207.128,128.008 208.141,128.118 208.251 C 128.228 208.361,128.445 207.528,128.600 206.400 C 128.755 205.272,128.792 204.259,128.682 204.149 C 128.572 204.039,128.355 204.872,128.200 206.000 M134.611 208.072 C 134.448 209.322,134.400 210.582,134.504 210.872 C 134.608 211.162,134.826 210.378,134.989 209.128 C 135.152 207.878,135.200 206.618,135.096 206.328 C 134.992 206.038,134.774 206.822,134.611 208.072 M127.418 211.526 C 127.253 212.695,127.213 213.746,127.329 213.862 C 127.614 214.147,128.131 210.587,127.900 209.925 C 127.800 209.636,127.582 210.357,127.418 211.526 M133.811 213.672 C 133.648 214.922,133.600 216.182,133.704 216.472 C 133.808 216.762,134.026 215.978,134.189 214.728 C 134.352 213.478,134.400 212.218,134.296 211.928 C 134.192 211.638,133.974 212.422,133.811 213.672 M126.600 217.600 C 126.445 218.728,126.408 219.741,126.518 219.851 C 126.628 219.961,126.845 219.128,127.000 218.000 C 127.155 216.872,127.192 215.859,127.082 215.749 C 126.972 215.639,126.755 216.472,126.600 217.600 M133.100 218.750 C 132.935 219.493,132.816 220.663,132.836 221.350 L 132.872 222.600 133.258 221.258 C 133.471 220.520,133.589 219.350,133.522 218.658 L 133.399 217.400 133.100 218.750 M125.800 223.200 C 125.645 224.328,125.608 225.341,125.718 225.451 C 125.828 225.561,126.045 224.728,126.200 223.600 C 126.355 222.472,126.392 221.459,126.282 221.349 C 126.172 221.239,125.955 222.072,125.800 223.200 M132.211 225.272 C 132.048 226.522,132.000 227.782,132.104 228.072 C 132.208 228.362,132.426 227.578,132.589 226.328 C 132.752 225.078,132.800 223.818,132.696 223.528 C 132.592 223.238,132.374 224.022,132.211 225.272 M125.018 228.726 C 124.853 229.895,124.813 230.946,124.929 231.062 C 125.214 231.347,125.731 227.787,125.500 227.125 C 125.400 226.836,125.182 227.557,125.018 228.726 M131.411 230.872 C 131.248 232.122,131.200 233.382,131.304 233.672 C 131.408 233.962,131.626 233.178,131.789 231.928 C 131.952 230.678,132.000 229.418,131.896 229.128 C 131.792 228.838,131.574 229.622,131.411 230.872 M124.188 234.538 C 124.039 235.535,123.999 236.586,124.100 236.875 C 124.200 237.164,124.418 236.443,124.582 235.274 C 124.747 234.105,124.787 233.054,124.671 232.938 C 124.555 232.822,124.338 233.542,124.188 234.538 M130.633 236.472 C 130.458 237.722,130.400 238.982,130.505 239.272 C 130.769 240.005,131.309 236.346,131.112 235.163 C 131.012 234.563,130.831 235.058,130.633 236.472 M123.400 240.400 C 123.245 241.528,123.208 242.541,123.318 242.651 C 123.428 242.761,123.645 241.928,123.800 240.800 C 123.955 239.672,123.992 238.659,123.882 238.549 C 123.772 238.439,123.555 239.272,123.400 240.400 M129.904 241.400 C 129.742 242.280,129.625 243.630,129.645 244.400 L 129.680 245.800 130.057 244.200 C 130.263 243.320,130.380 241.970,130.316 241.200 L 130.200 239.800 129.904 241.400 M122.600 246.000 C 122.445 247.128,122.408 248.141,122.518 248.251 C 122.628 248.361,122.845 247.528,123.000 246.400 C 123.155 245.272,123.192 244.259,123.082 244.149 C 122.972 244.039,122.755 244.872,122.600 246.000 M129.011 248.072 C 128.848 249.322,128.800 250.582,128.904 250.872 C 129.008 251.162,129.226 250.378,129.389 249.128 C 129.552 247.878,129.600 246.618,129.496 246.328 C 129.392 246.038,129.174 246.822,129.011 248.072 M121.818 251.526 C 121.653 252.695,121.613 253.746,121.729 253.862 C 122.014 254.147,122.531 250.587,122.300 249.925 C 122.200 249.636,121.982 250.357,121.818 251.526 M128.304 253.000 C 128.142 253.880,128.027 255.320,128.048 256.200 L 128.088 257.800 128.451 256.000 C 128.651 255.010,128.766 253.570,128.707 252.800 L 128.600 251.400 128.304 253.000 M121.018 257.926 C 120.853 259.095,120.813 260.146,120.929 260.262 C 121.214 260.547,121.731 256.987,121.500 256.325 C 121.400 256.036,121.182 256.757,121.018 257.926 M127.447 259.737 C 127.278 260.802,127.232 261.765,127.344 261.878 C 127.636 262.169,128.105 259.424,127.914 258.540 C 127.827 258.133,127.616 258.671,127.447 259.737 M120.449 261.200 C 120.416 261.530,120.289 262.250,120.167 262.800 C 119.975 263.664,120.007 263.703,120.399 263.088 C 120.648 262.697,120.775 261.977,120.681 261.488 C 120.586 261.000,120.482 260.870,120.449 261.200 M126.453 263.903 C 125.919 265.778,122.932 269.580,118.128 274.500 C 116.463 276.205,115.291 277.600,115.522 277.600 C 116.014 277.600,119.134 274.368,123.152 269.695 C 125.981 266.404,127.358 263.996,127.083 262.819 C 127.003 262.478,126.719 262.966,126.453 263.903 M117.361 267.900 C 116.517 268.945,114.380 271.386,112.613 273.325 C 110.846 275.263,109.328 277.053,109.241 277.301 C 109.045 277.859,117.295 268.752,118.432 267.156 C 119.726 265.338,119.054 265.805,117.361 267.900 " stroke="none" fill="#9adbc7" fill-rule="evenodd"></path></g></svg>