<svg width="0" height="0" class="hidden">
  <symbol xmlns="http://www.w3.org/2000/svg" viewBox="0 0 24 24" id="edx">
    <title>edX icon</title>
    <path d="M6.359 10.416c.053.162.079.334.079.516a3.154 3.154 0 01-.011.231h-3c.065-.236.152-.451.262-.644.109-.193.239-.359.39-.497.15-.138.318-.246.503-.321.184-.075.383-.113.595-.113.209 0 .392.036.549.108.156.071.288.169.394.292.107.123.186.266.239.428zm5.444-.4a1.206 1.206 0 00-.436-.305 1.48 1.48 0 00-.58-.108c-.284 0-.547.063-.79.19a1.952 1.952 0 00-.631.528 2.61 2.61 0 00-.421.808 3.305 3.305 0 00-.154 1.029c0 .233.033.446.1.641s.16.362.28.5c.12.138.263.246.431.323.168.077.354.116.56.116.287 0 .553-.067.798-.203.244-.135.458-.32.639-.554a2.71 2.71 0 00.426-.826c.102-.316.154-.658.154-1.024 0-.236-.033-.448-.098-.636a1.405 1.405 0 00-.278-.479zM24 7.468l-2.398 11.276H10.727l.625-2.852H0L2.227 5.256h13.577l-.462 2.212H24zM7.362 11.045a2.51 2.51 0 00-.169-.954 2.069 2.069 0 00-.457-.7 1.951 1.951 0 00-.669-.434 2.22 2.22 0 00-.809-.148 2.73 2.73 0 00-1.162.246 2.628 2.628 0 00-.911.695c-.253.3-.451.659-.593 1.077a4.346 4.346 0 00-.212 1.393c0 .373.059.703.177.99a2.01 2.01 0 001.198 1.172c.273.101.564.151.872.151.321 0 .616-.039.885-.115a2.55 2.55 0 00.708-.318c.204-.135.372-.295.505-.48a1.84 1.84 0 00.287-.595h-.938a1.279 1.279 0 01-.508.513c-.222.126-.517.19-.883.19-.168 0-.333-.028-.497-.085a1.202 1.202 0 01-.444-.274 1.41 1.41 0 01-.321-.49 1.913 1.913 0 01-.123-.726c0-.048.001-.094.003-.138.002-.044.004-.09.008-.138h3.986c.01-.051.019-.114.026-.187l.02-.226a6.153 6.153 0 00.021-.419zm5.036 3.392L14.04 6.71h-.898l-.682 3.217h-.082a1.406 1.406 0 00-.228-.454 1.56 1.56 0 00-.375-.354 1.786 1.786 0 00-.487-.228 1.93 1.93 0 00-.567-.082 2.506 2.506 0 00-1.45.456 2.892 2.892 0 00-.575.534c-.173.208-.32.442-.444.7a3.925 3.925 0 00-.285.841c-.066.303-.1.62-.1.952 0 .342.053.652.159.929.106.277.25.513.434.708.183.195.395.345.639.449.243.105.503.157.78.157.352 0 .681-.076.985-.228.304-.152.557-.36.759-.623h.082l-.159.754h.852zm6.116-1.39l3.578-4.125H20.09l-2.184 2.704h-.108l-1.155-2.704h-2.025l1.736 3.928-3.748 4.44h1.976l2.406-2.852h.162l1.3 2.852h1.988l-1.924-4.243z"></path>
  </symbol>
  <symbol xmlns="http://www.w3.org/2000/svg" viewBox="0 0 24 24" id="firebase">
    <title>Firebase icon</title>
    <path d="M3.89 15.672L6.255.461A.542.542 0 017.27.288l2.543 4.771zm16.794 3.692l-2.25-14a.54.54 0 00-.919-.295L3.316 19.365l7.856 4.427a1.621 1.621 0 001.588 0zM14.3 7.147l-1.82-3.482a.542.542 0 00-.96 0L3.53 17.984z"></path>
  </symbol>
  <symbol xmlns="http://www.w3.org/2000/svg" viewBox="0 0 24 24" id="freecodecamp">
    <title>freeCodeCamp icon</title>
    <path d="M19.885 3.906a.621.621 0 00-.354.12c-.08.08-.161.196-.161.313 0 .2.236.474.673.923 1.822 1.754 2.738 3.903 2.732 6.494-.007 2.867-.97 5.17-2.844 6.954-.394.353-.556.63-.557.867 0 .116.08.237.16.353a.58.58 0 00.353.162c.434 0 1.04-.512 1.833-1.509 1.542-1.89 2.24-3.978 2.279-6.824.036-2.847-.857-4.777-2.603-6.77-.63-.712-1.153-1.082-1.511-1.083zm-15.769.002c-.358 0-.882.37-1.51 1.083C.858 6.984-.035 8.914.001 11.761c.04 2.846.737 4.933 2.28 6.824.791.997 1.398 1.51 1.832 1.509a.573.573 0 00.352-.162c.08-.116.16-.237.16-.353 0-.237-.162-.514-.556-.866-1.873-1.785-2.837-4.087-2.844-6.955-.006-2.591.91-4.74 2.732-6.494.437-.449.674-.722.673-.923 0-.117-.08-.233-.161-.313a.621.621 0 00-.354-.12zm7.056.895s.655 2.081-2.649 6.727c-3.156 4.433 1.045 7.15 1.432 7.386-.281-.18-2.001-1.5.402-5.423.466-.77 1.076-1.47 1.834-3.041 0 0 .67.946.32 2.998-.523 3.101 2.271 2.214 2.314 2.257.976 1.15-.808 3.17-.917 3.233-.108.061 5.096-3.13 1.399-7.935-.253.253-.582 1.442-1.267 1.266-.684-.174 2.125-3.494-2.868-7.468zM9.955 18.916c.023.016.038.024.038.024l-.038-.024z"></path>
  </symbol>
  <symbol xmlns="http://www.w3.org/2000/svg" viewBox="0 0 24 24" id="git">
    <title>Git icon</title>
    <path d="M23.546 10.93L13.067.452a1.55 1.55 0 00-2.188 0L8.708 2.627l2.76 2.76a1.838 1.838 0 012.327 2.341l2.658 2.66a1.838 1.838 0 011.9 3.039 1.837 1.837 0 01-2.6 0 1.846 1.846 0 01-.404-1.996L12.86 8.955v6.525c.176.086.342.203.488.348a1.848 1.848 0 010 2.6 1.844 1.844 0 01-2.609 0 1.834 1.834 0 010-2.598c.182-.18.387-.316.605-.406V8.835a1.834 1.834 0 01-.996-2.41L7.636 3.7.45 10.881c-.6.605-.6 1.584 0 2.189l10.48 10.477a1.545 1.545 0 002.186 0l10.43-10.43a1.544 1.544 0 000-2.187"></path>
  </symbol>
  <symbol xmlns="http://www.w3.org/2000/svg" viewBox="0 0 24 24" id="github">
    <title>GitHub icon</title>
    <path d="M12 .297c-6.63 0-12 5.373-12 12 0 5.303 3.438 9.8 8.205 11.385.6.113.82-.258.82-.577 0-.285-.01-1.04-.015-2.04-3.338.724-4.042-1.61-4.042-1.61C4.422 18.07 3.633 17.7 3.633 17.7c-1.087-.744.084-.729.084-.729 1.205.084 1.838 1.236 1.838 1.236 1.07 1.835 2.809 1.305 3.495.998.108-.776.417-1.305.76-1.605-2.665-.3-5.466-1.332-5.466-5.93 0-1.31.465-2.38 1.235-3.22-.135-.303-.54-1.523.105-3.176 0 0 1.005-.322 3.3 1.23.96-.267 1.98-.399 3-.405 1.02.006 2.04.138 3 .405 2.28-1.552 3.285-1.23 3.285-1.23.645 1.653.24 2.873.12 3.176.765.84 1.23 1.91 1.23 3.22 0 4.61-2.805 5.625-5.475 5.92.42.36.81 1.096.81 2.22 0 1.606-.015 2.896-.015 3.286 0 .315.21.69.825.57C20.565 22.092 24 17.592 24 12.297c0-6.627-5.373-12-12-12"></path>
  </symbol>
  <symbol xmlns="http://www.w3.org/2000/svg" viewBox="0 0 24 24" id="graphql">
    <title>GraphQL icon</title>
    <path d="M14.051 2.751l4.935 2.85a2.144 2.144 0 013.409.4 2.146 2.146 0 01-1.354 3.151v5.699a2.132 2.132 0 011.348 3.15 2.143 2.143 0 01-3.453.353l-4.905 2.832a2.14 2.14 0 11-4.171.678c0-.205.029-.41.088-.609l-4.936-2.847a2.14 2.14 0 11-2.052-3.559l.001-5.699A2.141 2.141 0 011.604 6a2.143 2.143 0 013.407-.405l4.938-2.85A2.138 2.138 0 0112 0a2.137 2.137 0 012.051 2.751zm-.515.877a.793.793 0 01-.058.058l6.461 11.19c.026-.009.056-.016.082-.023V9.146a2.135 2.135 0 01-1.558-2.588l.019-.072-4.946-2.858zm-3.015.059l-.06-.06-4.946 2.852a2.136 2.136 0 01-1.461 2.645l-.076.021v5.708l.084.023 6.461-11.19-.002.001zm2.076.507c-.39.112-.803.112-1.192 0l-6.46 11.189c.294.283.502.645.6 1.041h12.911c.097-.398.307-.761.603-1.044L12.597 4.194zm.986 16.227l4.913-2.838a1.748 1.748 0 01-.038-.142H5.542l-.021.083 4.939 2.852a2.126 2.126 0 011.54-.653c.627 0 1.19.269 1.583.698z"></path>
  </symbol>
  <symbol xmlns="http://www.w3.org/2000/svg" viewBox="0 0 512 512" id="growth">
    <path d="M504.5 480.837h-38.97V240.49c0-4.142-3.357-7.5-7.5-7.5s-7.5 3.358-7.5 7.5v240.347h-49.648l-.002-318.357h49.65v43.01c0 4.142 3.357 7.5 7.5 7.5s7.5-3.358 7.5-7.5v-50.51a7.5 7.5 0 00-7.5-7.5h-64.65a7.5 7.5 0 00-7.5 7.5v43.012h-57.148a7.5 7.5 0 00-7.5 7.5V248.5h-57.15a7.5 7.5 0 00-7.5 7.5v43.008h-57.15a7.5 7.5 0 00-7.5 7.5v43.008h-57.15a7.5 7.5 0 00-7.5 7.5v38.964H70.13a7.5 7.5 0 00-7.5 7.5v20.89c0 4.142 3.357 7.5 7.5 7.5s7.5-3.358 7.5-7.5v-13.39h49.65v69.857H77.63V459.37c0-4.142-3.357-7.5-7.5-7.5s-7.5 3.358-7.5 7.5v21.467H31.163V7.5c0-4.142-3.357-7.5-7.5-7.5s-7.5 3.358-7.5 7.5v38.967H7.5c-4.143 0-7.5 3.358-7.5 7.5s3.357 7.5 7.5 7.5h8.663v49.65H7.5c-4.143 0-7.5 3.358-7.5 7.5s3.357 7.5 7.5 7.5h8.663v49.65H7.5c-4.143 0-7.5 3.358-7.5 7.5s3.357 7.5 7.5 7.5h8.663v49.65H7.5c-4.143 0-7.5 3.358-7.5 7.5s3.357 7.5 7.5 7.5h8.663v49.651H7.5c-4.143 0-7.5 3.358-7.5 7.5s3.357 7.5 7.5 7.5h8.663v49.65H7.5c-4.143 0-7.5 3.358-7.5 7.5s3.357 7.5 7.5 7.5h8.663v49.65H7.5c-4.143 0-7.5 3.358-7.5 7.5s3.357 7.5 7.5 7.5h8.663v38.967a7.5 7.5 0 007.5 7.5H62.63v8.663c0 4.142 3.357 7.5 7.5 7.5s7.5-3.358 7.5-7.5v-8.66h49.65v8.66c0 4.142 3.357 7.5 7.5 7.5s7.5-3.358 7.5-7.5v-8.663h49.65v8.663c0 4.142 3.357 7.5 7.5 7.5s7.5-3.358 7.5-7.5v-8.663h49.65v8.663c0 4.142 3.357 7.5 7.5 7.5s7.5-3.358 7.5-7.5v-8.663h49.65v8.663c0 4.142 3.357 7.5 7.5 7.5s7.5-3.358 7.5-7.5v-8.663h49.65v8.663c0 4.142 3.357 7.5 7.5 7.5s7.5-3.358 7.5-7.5v-8.66h49.65v8.66c0 4.142 3.357 7.5 7.5 7.5s7.5-3.358 7.5-7.5v-8.663h38.97a7.5 7.5 0 100-14.998zM142.28 364.516h49.65v116.321h-49.65zm64.651-50.508h49.65v166.829h-49.65zm64.65-50.508h49.65v217.337h-49.65zm64.65-50.508h49.648v267.846h-49.648z"></path>
    <path d="M86.1 338.44c6.323 0 12.267-2.46 16.734-6.927l112.91-112.91a7.5 7.5 0 00-10.607-10.606L92.228 320.906a8.61 8.61 0 01-6.128 2.534c-2.311 0-4.482-.9-6.116-2.533a8.614 8.614 0 01-2.543-6.13c0-2.311.901-4.484 2.543-6.123l263.521-263.52a7.499 7.499 0 00-5.304-12.803h-23.61c-4.775 0-8.66-3.889-8.66-8.67 0-4.775 3.885-8.66 8.66-8.66h62.63c4.775 0 8.66 3.885 8.66 8.66v62.63c0 4.781-3.885 8.67-8.66 8.67s-8.66-3.889-8.66-8.67V62.68a7.499 7.499 0 00-12.804-5.303l-125.88 125.88a7.5 7.5 0 0010.607 10.606L353.56 80.787v5.503c0 13.052 10.614 23.67 23.66 23.67s23.66-10.618 23.66-23.67V23.66C400.88 10.614 390.266 0 377.22 0h-62.63c-13.046 0-23.66 10.614-23.66 23.66 0 13.052 10.614 23.67 23.66 23.67h5.504L69.38 298.043c-4.475 4.469-6.939 10.412-6.939 16.733 0 6.32 2.463 12.264 6.937 16.737A23.491 23.491 0 0086.1 338.44z"></path>
  </symbol>
  <symbol xmlns="http://www.w3.org/2000/svg" viewBox="0 0 24 24" id="html5">
    <title>HTML5 icon</title>
    <path d="M1.5 0h21l-1.91 21.563L11.977 24l-8.564-2.438L1.5 0zm7.031 9.75l-.232-2.718 10.059.003.23-2.622L5.412 4.41l.698 8.01h9.126l-.326 3.426-2.91.804-2.955-.81-.188-2.11H6.248l.33 4.171L12 19.351l5.379-1.443.744-8.157H8.531z"></path>
  </symbol>
  <symbol xmlns="http://www.w3.org/2000/svg" viewBox="0 0 24 24" id="hubspot">
    <title>HubSpot icon</title>
    <path d="M18.164 7.93V5.084a2.198 2.198 0 001.267-1.978v-.067A2.2 2.2 0 0017.238.845h-.067a2.2 2.2 0 00-2.193 2.193v.067a2.196 2.196 0 001.252 1.973l.013.006v2.852a6.22 6.22 0 00-2.969 1.31l.012-.01-7.828-6.095A2.497 2.497 0 104.3 4.656l-.012.006 7.697 5.991a6.176 6.176 0 00-1.038 3.446 6.22 6.22 0 001.147 3.607l-.013-.02-2.342 2.343a1.968 1.968 0 00-.58-.095h-.002a2.033 2.033 0 102.033 2.033 1.978 1.978 0 00-.1-.595l.005.014 2.317-2.317a6.247 6.247 0 104.782-11.134l-.036-.005zm-.964 9.378a3.206 3.206 0 113.215-3.207v.002a3.206 3.206 0 01-3.207 3.207z"></path>
  </symbol>
  <symbol xmlns="http://www.w3.org/2000/svg" viewBox="0 0 24 24" id="instagram">
    <title>Instagram icon</title>
    <path d="M12 0C8.74 0 8.333.015 7.053.072 5.775.132 4.905.333 4.14.63c-.789.306-1.459.717-2.126 1.384S.935 3.35.63 4.14C.333 4.905.131 5.775.072 7.053.012 8.333 0 8.74 0 12s.015 3.667.072 4.947c.06 1.277.261 2.148.558 2.913a5.885 5.885 0 001.384 2.126A5.868 5.868 0 004.14 23.37c.766.296 1.636.499 2.913.558C8.333 23.988 8.74 24 12 24s3.667-.015 4.947-.072c1.277-.06 2.148-.262 2.913-.558a5.898 5.898 0 002.126-1.384 5.86 5.86 0 001.384-2.126c.296-.765.499-1.636.558-2.913.06-1.28.072-1.687.072-4.947s-.015-3.667-.072-4.947c-.06-1.277-.262-2.149-.558-2.913a5.89 5.89 0 00-1.384-2.126A5.847 5.847 0 0019.86.63c-.765-.297-1.636-.499-2.913-.558C15.667.012 15.26 0 12 0zm0 2.16c3.203 0 3.585.016 4.85.071 1.17.055 1.805.249 2.227.415.562.217.96.477 1.382.896.419.42.679.819.896 1.381.164.422.36 1.057.413 2.227.057 1.266.07 1.646.07 4.85s-.015 3.585-.074 4.85c-.061 1.17-.256 1.805-.421 2.227a3.81 3.81 0 01-.899 1.382 3.744 3.744 0 01-1.38.896c-.42.164-1.065.36-2.235.413-1.274.057-1.649.07-4.859.07-3.211 0-3.586-.015-4.859-.074-1.171-.061-1.816-.256-2.236-.421a3.716 3.716 0 01-1.379-.899 3.644 3.644 0 01-.9-1.38c-.165-.42-.359-1.065-.42-2.235-.045-1.26-.061-1.649-.061-4.844 0-3.196.016-3.586.061-4.861.061-1.17.255-1.814.42-2.234.21-.57.479-.96.9-1.381.419-.419.81-.689 1.379-.898.42-.166 1.051-.361 2.221-.421 1.275-.045 1.65-.06 4.859-.06l.045.03zm0 3.678a6.162 6.162 0 100 12.324 6.162 6.162 0 100-12.324zM12 16c-2.21 0-4-1.79-4-4s1.79-4 4-4 4 1.79 4 4-1.79 4-4 4zm7.846-10.405a1.441 1.441 0 01-2.88 0 1.44 1.44 0 012.88 0z"></path>
  </symbol>
  <symbol xmlns="http://www.w3.org/2000/svg" viewBox="0 0 24 24" id="java">
    <title>Java icon</title>
    <path d="M8.851 18.56s-.917.534.653.714c1.902.218 2.874.187 4.969-.211 0 0 .552.346 1.321.646-4.699 2.013-10.633-.118-6.943-1.149m-.575-2.627s-1.028.761.542.924c2.032.209 3.636.227 6.413-.308 0 0 .384.389.987.602-5.679 1.661-12.007.13-7.942-1.218m4.84-4.458c1.158 1.333-.304 2.533-.304 2.533s2.939-1.518 1.589-3.418c-1.261-1.772-2.228-2.652 3.007-5.688 0-.001-8.216 2.051-4.292 6.573m6.214 9.029s.679.559-.747.991c-2.712.822-11.288 1.069-13.669.033-.856-.373.75-.89 1.254-.998.527-.114.828-.093.828-.093-.953-.671-6.156 1.317-2.643 1.887 9.58 1.553 17.462-.7 14.977-1.82M9.292 13.21s-4.362 1.036-1.544 1.412c1.189.159 3.561.123 5.77-.062 1.806-.152 3.618-.477 3.618-.477s-.637.272-1.098.587c-4.429 1.165-12.986.623-10.522-.568 2.082-1.006 3.776-.892 3.776-.892m7.824 4.374c4.503-2.34 2.421-4.589.968-4.285-.355.074-.515.138-.515.138s.132-.207.385-.297c2.875-1.011 5.086 2.981-.928 4.562 0-.001.07-.062.09-.118M14.401 0s2.494 2.494-2.365 6.33c-3.896 3.077-.888 4.832-.001 6.836-2.274-2.053-3.943-3.858-2.824-5.539 1.644-2.469 6.197-3.665 5.19-7.627M9.734 23.924c4.322.277 10.959-.153 11.116-2.198 0 0-.302.775-3.572 1.391-3.688.694-8.239.613-10.937.168 0-.001.553.457 3.393.639"></path>
  </symbol>
  <symbol xmlns="http://www.w3.org/2000/svg" viewBox="0 0 24 24" id="javascript">
    <title>JavaScript icon</title>
    <path d="M0 0h24v24H0V0zm22.034 18.276c-.175-1.095-.888-2.015-3.003-2.873-.736-.345-1.554-.585-1.797-1.14-.091-.33-.105-.51-.046-.705.15-.646.915-.84 1.515-.66.39.12.75.42.976.9 1.034-.676 1.034-.676 1.755-1.125-.27-.42-.404-.601-.586-.78-.63-.705-1.469-1.065-2.834-1.034l-.705.089c-.676.165-1.32.525-1.71 1.005-1.14 1.291-.811 3.541.569 4.471 1.365 1.02 3.361 1.244 3.616 2.205.24 1.17-.87 1.545-1.966 1.41-.811-.18-1.26-.586-1.755-1.336l-1.83 1.051c.21.48.45.689.81 1.109 1.74 1.756 6.09 1.666 6.871-1.004.029-.09.24-.705.074-1.65l.046.067zm-8.983-7.245h-2.248c0 1.938-.009 3.864-.009 5.805 0 1.232.063 2.363-.138 2.711-.33.689-1.18.601-1.566.48-.396-.196-.597-.466-.83-.855-.063-.105-.11-.196-.127-.196l-1.825 1.125c.305.63.75 1.172 1.324 1.517.855.51 2.004.675 3.207.405.783-.226 1.458-.691 1.811-1.411.51-.93.402-2.07.397-3.346.012-2.054 0-4.109 0-6.179l.004-.056z"></path>
  </symbol>
  <symbol xmlns="http://www.w3.org/2000/svg" viewBox="0 0 24 24" id="jquery">
    <title>jQuery icon</title>
    <path d="M1.525 5.87c-2.126 3.054-1.862 7.026-.237 10.269.037.079.078.154.118.229.023.052.049.1.077.15.013.027.031.056.047.082.026.052.054.102.081.152l.157.266c.03.049.057.097.09.146.056.094.12.187.178.281.026.04.05.078.079.117a6.368 6.368 0 00.31.445c.078.107.156.211.24.315.027.038.058.076.086.115l.22.269c.028.03.055.067.084.099.098.118.202.233.306.35l.005.006a3.134 3.134 0 00.425.44c.08.083.16.165.245.245l.101.097c.111.105.223.209.34.309.002 0 .003.002.005.003l.057.05c.102.089.205.178.31.26l.125.105c.085.068.174.133.26.2l.137.105c.093.07.192.139.287.207.035.025.07.05.106.073l.03.023.28.185.12.08c.148.094.294.184.44.272.041.02.084.044.123.068.108.062.22.125.329.183.06.034.122.063.184.094.075.042.153.083.234.125a.324.324 0 01.056.023c.033.015.064.031.096.047.12.06.245.118.375.175.024.01.05.02.076.034.144.063.289.123.438.182.034.01.07.027.105.04.135.051.274.103.411.152l.05.018c.154.052.305.102.46.15.036.01.073.023.111.033.16.048.314.105.474.137 10.273 1.872 13.258-6.177 13.258-6.177-2.508 3.266-6.958 4.127-11.174 3.169-.156-.036-.312-.086-.47-.132a13.539 13.539 0 01-.567-.182l-.062-.024c-.136-.046-.267-.097-.4-.148a1.615 1.615 0 00-.11-.04c-.148-.06-.29-.121-.433-.184-.031-.01-.057-.024-.088-.036a23.44 23.44 0 01-.362-.17 1.485 1.485 0 01-.106-.052c-.094-.044-.188-.095-.28-.143a3.947 3.947 0 01-.187-.096c-.114-.06-.227-.125-.34-.187-.034-.024-.073-.044-.112-.066a15.922 15.922 0 01-.439-.27 2.107 2.107 0 01-.118-.078 6.01 6.01 0 01-.312-.207c-.035-.023-.067-.048-.103-.073a9.553 9.553 0 01-.295-.212c-.042-.034-.087-.066-.132-.1-.088-.07-.177-.135-.265-.208l-.118-.095a10.593 10.593 0 01-.335-.28.258.258 0 00-.037-.031l-.347-.316-.1-.094c-.082-.084-.166-.164-.25-.246l-.098-.1a9.081 9.081 0 01-.309-.323l-.015-.016c-.106-.116-.21-.235-.313-.355-.027-.03-.053-.064-.08-.097l-.227-.277a21.275 21.275 0 01-.34-.449C2.152 11.79 1.306 7.384 3.177 3.771m4.943-.473c-1.54 2.211-1.454 5.169-.254 7.508a9.111 9.111 0 00.678 1.133c.23.33.484.721.793.988.107.122.223.24.344.36l.09.09c.114.11.232.217.35.325l.016.013a9.867 9.867 0 00.414.342c.034.023.063.05.096.073.14.108.282.212.428.316l.015.009c.062.045.128.086.198.13.028.018.06.042.09.06.106.068.21.132.318.197.017.007.032.016.048.023.09.055.188.108.282.157.033.02.065.035.1.054.066.033.132.068.197.102l.032.014c.135.067.273.129.408.19.034.014.063.025.092.039.111.048.224.094.336.137.05.017.097.037.144.052.102.038.21.073.31.108l.14.045c.147.045.295.104.449.13C22.164 17.206 24 11.098 24 11.098c-1.653 2.38-4.852 3.513-8.261 2.628a8.04 8.04 0 01-.449-.13c-.048-.014-.09-.029-.136-.043-.104-.036-.211-.07-.312-.109l-.144-.054c-.113-.045-.227-.087-.336-.135-.034-.015-.065-.025-.091-.04-.14-.063-.281-.125-.418-.192l-.206-.107-.119-.06a5.673 5.673 0 01-.265-.15.62.62 0 01-.062-.035c-.106-.066-.217-.13-.318-.198-.034-.019-.065-.042-.097-.062l-.208-.136c-.144-.1-.285-.208-.428-.313-.032-.029-.063-.053-.094-.079-1.499-1.178-2.681-2.79-3.242-4.613-.59-1.897-.46-4.023.56-5.75m4.292-.147c-.909 1.334-.996 2.99-.37 4.46.665 1.563 2.024 2.79 3.608 3.37.065.025.128.046.196.07l.088.027c.092.03.185.063.28.084 4.381.845 5.567-2.25 5.886-2.704-1.043 1.498-2.792 1.857-4.938 1.335a4.85 4.85 0 01-.516-.16 6.352 6.352 0 01-.618-.254 6.53 6.53 0 01-1.082-.66c-1.922-1.457-3.113-4.236-1.859-6.5"></path>
  </symbol>
  <symbol xmlns="http://www.w3.org/2000/svg" viewBox="0 0 24 24" id="json">
    <title>JSON icon</title>
    <path d="M12.043 23.968c.479-.004.953-.029 1.426-.094a11.805 11.805 0 003.146-.863 12.404 12.404 0 003.793-2.542 11.977 11.977 0 002.44-3.427 11.794 11.794 0 001.02-3.476c.149-1.16.135-2.346-.045-3.499a11.96 11.96 0 00-.793-2.788 11.197 11.197 0 00-.854-1.617c-1.168-1.837-2.861-3.314-4.81-4.3a12.835 12.835 0 00-2.172-.87h-.005c.119.063.24.132.345.201.12.074.239.146.351.225a8.93 8.93 0 011.559 1.33c1.063 1.145 1.797 2.548 2.218 4.041.284.982.434 1.998.495 3.017.044.743.044 1.491-.047 2.229-.149 1.27-.554 2.51-1.228 3.596a7.475 7.475 0 01-1.903 2.084c-1.244.928-2.877 1.482-4.436 1.114a3.916 3.916 0 01-.748-.258 4.692 4.692 0 01-.779-.45 6.08 6.08 0 01-1.244-1.105 6.507 6.507 0 01-1.049-1.747 7.366 7.366 0 01-.494-2.54c-.03-1.273.225-2.553.854-3.67a6.43 6.43 0 011.663-1.918c.225-.178.464-.333.704-.479l.016-.007a5.121 5.121 0 00-1.441-.12 4.963 4.963 0 00-1.228.24c-.359.12-.704.27-1.019.45a6.146 6.146 0 00-.733.494c-.211.18-.42.36-.615.555-1.123 1.153-1.768 2.682-2.022 4.256-.15.973-.15 1.96-.091 2.95.105 1.395.391 2.787.945 4.062a8.518 8.518 0 001.348 2.173 8.14 8.14 0 003.132 2.23 7.934 7.934 0 002.113.54c.074.015.149.015.209.015zm-2.934-.398a4.102 4.102 0 01-.45-.228 8.5 8.5 0 01-2.038-1.534c-1.094-1.137-1.827-2.566-2.247-4.08a15.184 15.184 0 01-.495-3.172 12.14 12.14 0 01.046-2.082c.135-1.257.495-2.501 1.124-3.58a6.889 6.889 0 011.783-2.053 6.23 6.23 0 011.633-.9 5.363 5.363 0 013.522-.045c.029 0 .029 0 .045.03.015.015.045.015.06.03.045.016.104.045.165.074.239.12.479.271.704.42a6.294 6.294 0 012.097 2.502c.42.914.615 1.934.631 2.938.014 1.079-.18 2.157-.645 3.146a6.42 6.42 0 01-2.638 2.832c.09.03.18.045.271.075.225.044.449.074.688.074 1.468.045 2.892-.66 3.94-1.647.195-.18.375-.375.54-.585.225-.27.435-.54.614-.823.239-.375.435-.75.614-1.154a8.112 8.112 0 00.509-1.664c.196-1.004.211-2.022.149-3.026-.135-2.022-.673-4.045-1.842-5.724a9.054 9.054 0 00-.555-.719 9.868 9.868 0 00-1.063-1.034 8.477 8.477 0 00-1.363-.915 9.927 9.927 0 00-1.692-.598l-.3-.06c-.209-.03-.42-.044-.634-.06a8.453 8.453 0 00-1.015.016c-.704.045-1.412.16-2.112.337C5.799 1.227 2.863 3.566 1.3 6.67A11.834 11.834 0 00.238 9.801a11.81 11.81 0 00-.104 3.775c.12 1.02.374 2.023.778 2.977.227.57.511 1.124.825 1.648 1.094 1.783 2.683 3.236 4.51 4.24.688.39 1.408.69 2.157.944.226.074.45.15.689.21z"></path>
  </symbol>
  <symbol xmlns="http://www.w3.org/2000/svg" viewBox="0 0 50 2" id="line">
    <path fill="#63c3ef" d="M0 0h50v2H0z"></path>
  </symbol>
  <symbol xmlns="http://www.w3.org/2000/svg" viewBox="0 0 24 24" id="linkedin">
    <title>LinkedIn icon</title>
    <path d="M20.447 20.452h-3.554v-5.569c0-1.328-.027-3.037-1.852-3.037-1.853 0-2.136 1.445-2.136 2.939v5.667H9.351V9h3.414v1.561h.046c.477-.9 1.637-1.85 3.37-1.85 3.601 0 4.267 2.37 4.267 5.455v6.286zM5.337 7.433a2.062 2.062 0 01-2.063-2.065 2.064 2.064 0 112.063 2.065zm1.782 13.019H3.555V9h3.564v11.452zM22.225 0H1.771C.792 0 0 .774 0 1.729v20.542C0 23.227.792 24 1.771 24h20.451C23.2 24 24 23.227 24 22.271V1.729C24 .774 23.2 0 22.222 0h.003z"></path>
  </symbol>
  <symbol xmlns="http://www.w3.org/2000/svg" viewBox="0 0 24 24" id="linux">
    <title>Linux icon</title>
    <path d="M12.504 0c-.155 0-.315.008-.48.021-4.226.333-3.105 4.807-3.17 6.298-.076 1.092-.3 1.953-1.05 3.02-.885 1.051-2.127 2.75-2.716 4.521-.278.832-.41 1.684-.287 2.489a.424.424 0 00-.11.135c-.26.268-.45.6-.663.839-.199.199-.485.267-.797.4-.313.136-.658.269-.864.68-.09.189-.136.394-.132.602 0 .199.027.4.055.536.058.399.116.728.04.97-.249.68-.28 1.145-.106 1.484.174.334.535.47.94.601.81.2 1.91.135 2.774.6.926.466 1.866.67 2.616.47.526-.116.97-.464 1.208-.946.587-.003 1.23-.269 2.26-.334.699-.058 1.574.267 2.577.2.025.134.063.198.114.333l.003.003c.391.778 1.113 1.132 1.884 1.071.771-.06 1.592-.536 2.257-1.306.631-.765 1.683-1.084 2.378-1.503.348-.199.629-.469.649-.853.023-.4-.2-.811-.714-1.376v-.097l-.003-.003c-.17-.2-.25-.535-.338-.926-.085-.401-.182-.786-.492-1.046h-.003c-.059-.054-.123-.067-.188-.135a.357.357 0 00-.19-.064c.431-1.278.264-2.55-.173-3.694-.533-1.41-1.465-2.638-2.175-3.483-.796-1.005-1.576-1.957-1.56-3.368.026-2.152.236-6.133-3.544-6.139zm.529 3.405h.013c.213 0 .396.062.584.198.19.135.33.332.438.533.105.259.158.459.166.724 0-.02.006-.04.006-.06v.105a.086.086 0 01-.004-.021l-.004-.024a1.807 1.807 0 01-.15.706.953.953 0 01-.213.335.71.71 0 00-.088-.042c-.104-.045-.198-.064-.284-.133a1.312 1.312 0 00-.22-.066c.05-.06.146-.133.183-.198.053-.128.082-.264.088-.402v-.02a1.21 1.21 0 00-.061-.4c-.045-.134-.101-.2-.183-.333-.084-.066-.167-.132-.267-.132h-.016c-.093 0-.176.03-.262.132a.8.8 0 00-.205.334 1.18 1.18 0 00-.09.4v.019c.002.089.008.179.02.267-.193-.067-.438-.135-.607-.202a1.635 1.635 0 01-.018-.2v-.02a1.772 1.772 0 01.15-.768 1.08 1.08 0 01.43-.533.985.985 0 01.594-.2zm-2.962.059h.036c.142 0 .27.048.399.135.146.129.264.288.344.465.09.199.14.4.153.667v.004c.007.134.006.2-.002.266v.08c-.03.007-.056.018-.083.024-.152.055-.274.135-.393.2.012-.09.013-.18.003-.267v-.015c-.012-.133-.04-.2-.082-.333a.613.613 0 00-.166-.267.248.248 0 00-.183-.064h-.021c-.071.006-.13.04-.186.132a.552.552 0 00-.12.27.944.944 0 00-.023.33v.015c.012.135.037.2.08.334.046.134.098.2.166.268.01.009.02.018.034.024-.07.057-.117.07-.176.136a.304.304 0 01-.131.068 2.62 2.62 0 01-.275-.402 1.772 1.772 0 01-.155-.667 1.759 1.759 0 01.08-.668 1.43 1.43 0 01.283-.535c.128-.133.26-.2.418-.2zm1.37 1.706c.332 0 .733.065 1.216.399.293.2.523.269 1.052.468h.003c.255.136.405.266.478.399v-.131a.571.571 0 01.016.47c-.123.31-.516.643-1.063.842v.002c-.268.135-.501.333-.775.465-.276.135-.588.292-1.012.267a1.139 1.139 0 01-.448-.067 3.566 3.566 0 01-.322-.198c-.195-.135-.363-.332-.612-.465v-.005h-.005c-.4-.246-.616-.512-.686-.71-.07-.268-.005-.47.193-.6.224-.135.38-.271.483-.336.104-.074.143-.102.176-.131h.002v-.003c.169-.202.436-.47.839-.601.139-.036.294-.065.466-.065zm2.8 2.142c.358 1.417 1.196 3.475 1.735 4.473.286.534.855 1.659 1.102 3.024.156-.005.33.018.513.064.646-1.671-.546-3.467-1.089-3.966-.22-.2-.232-.335-.123-.335.59.534 1.365 1.572 1.646 2.757.13.535.16 1.104.021 1.67.067.028.135.06.205.067 1.032.534 1.413.938 1.23 1.537v-.043c-.06-.003-.12 0-.18 0h-.016c.151-.467-.182-.825-1.065-1.224-.915-.4-1.646-.336-1.77.465-.008.043-.013.066-.018.135-.068.023-.139.053-.209.064-.43.268-.662.669-.793 1.187-.13.533-.17 1.156-.205 1.869v.003c-.02.334-.17.838-.319 1.35-1.5 1.072-3.58 1.538-5.348.334a2.645 2.645 0 00-.402-.533 1.45 1.45 0 00-.275-.333c.182 0 .338-.03.465-.067a.615.615 0 00.314-.334c.108-.267 0-.697-.345-1.163-.345-.467-.931-.995-1.788-1.521-.63-.4-.986-.87-1.15-1.396-.165-.534-.143-1.085-.015-1.645.245-1.07.873-2.11 1.274-2.763.107-.065.037.135-.408.974-.396.751-1.14 2.497-.122 3.854a8.123 8.123 0 01.647-2.876c.564-1.278 1.743-3.504 1.836-5.268.048.036.217.135.289.202.218.133.38.333.59.465.21.201.477.335.876.335.039.003.075.006.11.006.412 0 .73-.134.997-.268.29-.134.52-.334.74-.4h.005c.467-.135.835-.402 1.044-.7zm2.185 8.958c.037.6.343 1.245.882 1.377.588.134 1.434-.333 1.791-.765l.211-.01c.315-.007.577.01.847.268l.003.003c.208.199.305.53.391.876.085.4.154.78.409 1.066.486.527.645.906.636 1.14l.003-.007v.018l-.003-.012c-.015.262-.185.396-.498.595-.63.401-1.746.712-2.457 1.57-.618.737-1.37 1.14-2.036 1.191-.664.053-1.237-.2-1.574-.898l-.005-.003c-.21-.4-.12-1.025.056-1.69.176-.668.428-1.344.463-1.897.037-.714.076-1.335.195-1.814.12-.465.308-.797.641-.984l.045-.022zm-10.814.049h.01c.053 0 .105.005.157.014.376.055.706.333 1.023.752l.91 1.664.003.003c.243.533.754 1.064 1.189 1.637.434.598.77 1.131.729 1.57v.006c-.057.744-.48 1.148-1.125 1.294-.645.135-1.52.002-2.395-.464-.968-.536-2.118-.469-2.857-.602-.369-.066-.61-.2-.723-.4-.11-.2-.113-.602.123-1.23v-.004l.002-.003c.117-.334.03-.752-.027-1.118-.055-.401-.083-.71.043-.94.16-.334.396-.4.69-.533.294-.135.64-.202.915-.47h.002v-.002c.256-.268.445-.601.668-.838.19-.201.38-.336.663-.336zm7.159-9.074c-.435.201-.945.535-1.488.535-.542 0-.97-.267-1.28-.466-.154-.134-.28-.268-.373-.335-.164-.134-.144-.333-.074-.333.109.016.129.134.199.2.096.066.215.2.36.333.292.2.68.467 1.167.467.485 0 1.053-.267 1.398-.466.195-.135.445-.334.648-.467.156-.136.149-.267.279-.267.128.016.034.134-.147.332a8.097 8.097 0 01-.69.468zm-1.082-1.583V5.64c-.006-.02.013-.042.029-.05.074-.043.18-.027.26.004.063 0 .16.067.15.135-.006.049-.085.066-.135.066-.055 0-.092-.043-.141-.068-.052-.018-.146-.008-.163-.065zm-.551 0c-.02.058-.113.049-.166.066-.047.025-.086.068-.14.068-.05 0-.13-.02-.136-.068-.01-.066.088-.133.15-.133.08-.031.184-.047.259-.005.019.009.036.03.03.05v.02h.003z"></path>
  </symbol>
  <symbol xmlns="http://www.w3.org/2000/svg" viewBox="0 0 209 54" id="logo">
    <path d="M43.851 29.7l-19.607 9.5 7.793-25.18z" stroke-linecap="round" stroke-linejoin="round" stroke-width="10" fill-rule="evenodd" fill="#2584ff" stroke="#2584ff"></path>
    <path d="M37.033 29.7l19.607 9.5-7.793-25.18z" fill="#ff3400" stroke="#ff3400" stroke-linecap="round" stroke-linejoin="round" stroke-width="10" fill-rule="evenodd"></path><text transform="matrix(.923 0 0 .923 71.466 35.437)" font-size="32.498" fill="#fff" font-family="Inter" font-weight="700">Moshify</text>
  </symbol>
  <symbol xmlns="http://www.w3.org/2000/svg" viewBox="0 0 400 400" id="logoo">
    <g fill-rule="evenodd">
      <path d="M168.8 145.635c-13.929.534-18.071 1.585-21.727 5.517-3.375 3.628-4.713 7.692-6.668 20.248-.24 1.54-.598 3.79-.796 5-.602 3.688-1.757 11.719-3.164 22-.921 6.726-1.31 9.517-1.645 11.8a708.3 708.3 0 00-.791 5.6c-.241 1.76-.605 4.37-.809 5.8-.204 1.43-.57 4.04-.813 5.8a3939 3939 0 01-1.591 11.4c-.202 1.43-.564 4.04-.805 5.8a708.3 708.3 0 01-.791 5.6c-.195 1.32-.567 4.11-.829 6.2-.478 3.821-1.139 6.888-1.91 8.868-.417 1.069-6.485 8.298-8.819 10.507-.683.646-1.242 1.334-1.242 1.53 0 .593 34.661.195 35.26-.405.4-.4.344-.505-.28-.526-.429-.015.206-.292 1.41-.615 4.254-1.143 7.772-3.879 9.483-7.376 2.511-5.129 3.523-10.061 6.158-29.983.218-1.65.558-4.17.755-5.6l.786-5.7.856-6.2c.954-6.916 1.163-8.435 1.582-11.5.241-1.76.595-4.28.787-5.6.192-1.32.56-4.02.818-6 1.66-12.721 2.72-14.6 8.235-14.6h2.689l-.793.9c-.861.977-1.756 2.849-1.73 3.619.01.264.415-.32.9-1.3 1.709-3.443-.982-3.21 37.595-3.257 34.904-.043 41.365-.216 39.489-1.061l-1-.45 1.04-.026c2.431-.059 6.645-1.99 8.592-3.937 3.898-3.898 6.221-11.421 8.178-26.488.739-5.684.513-5.381 4.12-5.517l3.114-.117-.214 2.517c-.145 1.704-.1 2.194.138 1.517.194-.55.37-1.765.392-2.7l.04-1.7-54.3.076c-29.865.041-57.63.203-61.7.359m114.611 7.237c-.163 1.25-.211 2.51-.107 2.8.104.29.322-.494.485-1.744.163-1.25.211-2.51.107-2.8-.104-.29-.322.494-.485 1.744m-.8 5.203c-.162 1.031-.209 2.111-.105 2.4.104.289.321-.319.483-1.35.162-1.031.209-2.111.105-2.4-.104-.289-.321.319-.483 1.35m-.708 3.925a8 8 0 00-.272 2l.02 1 .393-.985c.216-.541.338-1.441.272-2l-.121-1.015-.292 1m-1.285 5.833c-1.902 7.147-5.377 11.246-11.196 13.21-1.55.523-1.561.539-.255.349 3.962-.576 8.019-3.945 10-8.302 1.393-3.063 2.579-6.852 2.355-7.524-.092-.275-.498.745-.904 2.267M264.2 182c-1.147.292-1.129.306.4.325.88.01 1.96-.136 2.4-.325 1.053-.453-1.021-.453-2.8 0m-82.422 7.778c-.151.803-.174 1.559-.052 1.682.122.122.346-.435.496-1.238.151-.803.174-1.559.052-1.682-.122-.122-.346.435-.496 1.238m-.678 3.372c-.165.743-.284 1.913-.264 2.6l.036 1.25.386-1.342c.213-.738.331-1.908.264-2.6l-.123-1.258-.299 1.35m-.889 6.522c-.163 1.25-.211 2.51-.107 2.8.104.29.322-.494.485-1.744.163-1.25.211-2.51.107-2.8-.104-.29-.322.494-.485 1.744m-.778 5.6c-.175 1.25-.233 2.51-.128 2.8.264.733.804-2.926.607-4.109-.1-.6-.281-.105-.479 1.309m-.822 6c-.163 1.25-.211 2.51-.107 2.8.104.29.322-.494.485-1.744.163-1.25.211-2.51.107-2.8-.104-.29-.322.494-.485 1.744m-.778 5.6c-.175 1.25-.233 2.51-.128 2.8.264.733.804-2.926.607-4.109-.1-.6-.281-.105-.479 1.309m-.822 6c-.163 1.25-.211 2.51-.107 2.8.104.29.322-.494.485-1.744.163-1.25.211-2.51.107-2.8-.104-.29-.322.494-.485 1.744m-.8 5.6c-.163 1.25-.211 2.51-.107 2.8.104.29.322-.494.485-1.744.163-1.25.211-2.51.107-2.8-.104-.29-.322.494-.485 1.744m-.711 5.078c-.165.743-.282 2.003-.26 2.8l.04 1.45.376-1.6c.207-.88.324-2.14.26-2.8l-.117-1.2-.299 1.35m-.796 5.85c-.162.88-.279 2.23-.259 3l.035 1.4.377-1.6c.206-.88.323-2.23.259-3l-.116-1.4-.296 1.6m-.884 7.118c-.175 1.495-.22 2.815-.102 2.934.293.292.804-3.957.59-4.899-.095-.414-.314.47-.488 1.965m-.801 5.6c-.174 1.275-.217 2.417-.097 2.537.3.3.795-3.184.584-4.108-.094-.411-.313.296-.487 1.571m-.751 4.482c-2.437 13.439-5.993 17.84-15.868 19.637l-3 .546 2.4-.163c5.311-.361 10.624-3.195 12.706-6.778 1.862-3.202 4.585-12.359 4.203-14.135-.083-.389-.282.013-.441.893" fill="#fb944c"></path>
      <path d="M0 200v200h400V0H0v200m274.535-54.936l10.265.264v1.359c0 .747-.165 2.113-.366 3.036-.201.922-.574 3.207-.829 5.077-2.119 15.557-5.125 22.529-10.919 25.327-5.682 2.745-11.276 3.073-52.384 3.073-35.153 0-34.798-.017-36.224 1.708-1.287 1.557-2.161 5.569-3.678 16.892a851.81 851.81 0 01-.8 5.8 851.81 851.81 0 00-.8 5.8c-.236 1.76-.594 4.37-.796 5.8-.926 6.56-1.85 13.242-2.404 17.4l-.817 6.1-.821 6.1c-2.887 21.473-6.496 26.652-19.562 28.079-4.318.471-45.2.914-45.2.49 0-.153 1.395-1.806 3.1-3.674 7.934-8.692 7.788-8.346 9.693-22.895.245-1.87.606-4.48.802-5.8.197-1.32.555-3.84.796-5.6.241-1.76.605-4.37.809-5.8.204-1.43.568-4.04.809-5.8.241-1.76.597-4.28.791-5.6.194-1.32.543-3.795.776-5.5l.848-6.2c.233-1.705.582-4.18.776-5.5.194-1.32.55-3.84.791-5.6.241-1.76.603-4.37.805-5.8.202-1.43.543-3.86.758-5.4 1.104-7.914 1.316-9.372 1.651-11.4.201-1.21.565-3.46.81-5 2.057-12.937 3.134-16.559 6.019-20.231 3.654-4.652 8.248-5.797 25.366-6.325 12.997-.4 96.08-.536 109.935-.18" fill="#fbfbfb"></path>
      <path d="M147.154 147.005c-7.828 2.146-10.906 7.334-13.166 22.195-.251 1.65-.608 3.81-.793 4.8-.185.99-.54 3.24-.789 5-.25 1.76-.612 4.28-.806 5.6-.194 1.32-.543 3.795-.776 5.5l-.848 6.2c-.233 1.705-.582 4.18-.776 5.5a708.3 708.3 0 00-.791 5.6c-.241 1.76-.603 4.37-.805 5.8a3939 3939 0 00-1.591 11.4c-.243 1.76-.609 4.37-.813 5.8-.204 1.43-.568 4.04-.809 5.8a578.92 578.92 0 01-.796 5.6c-.196 1.32-.556 3.93-.798 5.8-.243 1.87-.611 4.269-.819 5.331-.208 1.061-.378 2.647-.378 3.522 0 .876-.19 2.437-.422 3.47-1.246 5.544-1.763 6.42-7.572 12.811-4.762 5.242-4.665 4.866-1.255 4.866h2.75l3.027-3.1c8.359-8.561 8.633-9.14 10.274-21.7.244-1.87.607-4.57.807-6 .2-1.43.56-4.04.801-5.8.241-1.76.596-4.28.79-5.6.357-2.429.934-6.495 1.646-11.6a5338.812 5338.812 0 003.164-22.8c.241-1.76.596-4.28.79-5.6.194-1.32.55-3.84.791-5.6a710.664 710.664 0 011.624-11.3c1.046-6.788 1.252-8.025 1.605-9.606.209-.938.38-2.15.38-2.694 0-1.149.592-3.747 1.676-7.35 2.005-6.666 4.444-9.495 10.324-11.974 1.501-.633-3.264-.524-5.646.129" fill="#0bfaf9"></path>
      <path d="M278.014 146.374c-.228.425-.414 1.295-.414 1.933 0 .638-.167 2.135-.371 3.326a476.918 476.918 0 00-.812 4.967c-1.854 11.762-3.898 17.601-7.385 21.088-1.947 1.947-6.161 3.878-8.592 3.937l-1.04.026 1 .407c1.064.432 5.336-.081 8.837-1.063 7.778-2.18 11.095-8.008 13.542-23.795.221-1.43.575-3.68.786-5 .211-1.32.502-3.345.647-4.5l.263-2.1h-3.023c-2.58 0-3.085.114-3.438.774m-99.697 37.446c-1.955 1.061-3.103 4.792-4.302 13.98a510.97 510.97 0 01-.818 6c-.192 1.32-.54 3.795-.773 5.5-.233 1.705-.616 4.495-.852 6.2l-.786 5.7a23850.093 23850.093 0 01-1.6 11.6c-.197 1.43-.537 3.95-.755 5.6-2.635 19.922-3.647 24.854-6.158 29.983-1.716 3.506-5.279 6.272-9.455 7.341-3.29.842-1.022 1.201 3.217.509 11.977-1.955 14.868-6.953 17.954-31.033a909.793 909.793 0 011.611-12c.342-2.394.641-4.545 1.614-11.6l.8-5.8.814-5.9c.204-1.485.542-3.915.749-5.4.208-1.485.58-4.23.828-6.1 1.075-8.103 2.284-12.78 3.697-14.3l.837-.9-2.769.016c-1.65.01-3.208.254-3.853.604" fill="#fc0b09"></path>
      <path d="M166.6 145.273c-4.62.189-9.66.349-11.2.357-3.678.019-6.687.651-3.6.756 1.795.061 1.897.111 1 .49-5.879 2.478-8.172 5.136-10.41 12.064-.469 1.451-.778 2.959-.687 3.35.097.416.296.047.481-.89 1.796-9.13 8.061-14.957 16.136-15.01.814-.005 2.2-.206 3.08-.446 1.096-.3 18.664-.524 55.8-.712l54.2-.275-48.2-.013c-26.51-.007-51.98.141-56.6.329m-19.8 1.527c-.795.514.204.514 1.4 0l.8-.344-.8-.022c-.44-.012-1.07.153-1.4.366m-5.073 2.399c-2.249 1.654-5.408 6.054-4.79 6.671.108.108.549-.583.981-1.537.828-1.827 2.677-3.973 4.682-5.434.66-.48 1.1-.879.979-.886-.122-.007-.955.527-1.852 1.186M136.2 157.2c-.15.473-.183.95-.073 1.06.11.11.323-.187.473-.66.15-.473.183-.95.073-1.06-.11-.11-.323.187-.473.66m-.8 2.4c-.15.473-.183.95-.073 1.06.11.11.323-.187.473-.66.15-.473.183-.95.073-1.06-.11-.11-.323.187-.473.66m-.778 3.422c-.15.803-.184 1.55-.074 1.66.11.11.324-.457.474-1.26.151-.803.184-1.549.074-1.659-.11-.11-.323.456-.474 1.259m6.475.978c-.157.55-.272 1.54-.255 2.2l.03 1.2.386-1.342c.213-.738.328-1.728.256-2.2-.122-.804-.148-.795-.417.142m-7.315 3.782c-.153 1.02-.18 1.953-.06 2.073.12.12.343-.616.496-1.637.153-1.02.18-1.953.06-2.073-.12-.12-.343.616-.496 1.637m6.515 1.018c-.157.55-.27 1.63-.251 2.4l.034 1.4.375-1.6c.45-1.923.312-3.842-.158-2.2m-7.297 4c-.154.91-.189 1.744-.079 1.854.11.11.325-.544.479-1.454.154-.91.189-1.744.079-1.854-.11-.11-.325.544-.479 1.454m6.411 1.675c-.162 1.031-.209 2.111-.105 2.4.104.289.321-.319.483-1.35.162-1.031.209-2.111.105-2.4-.104-.289-.321.319-.483 1.35m-7.229 3.307c-.153 1.02-.188 1.945-.078 2.055.11.11.325-.635.478-1.655.153-1.021.188-1.945.078-2.055-.11-.11-.325.634-.478 1.655m6.518.968c-.165.743-.284 1.913-.264 2.6l.036 1.25.386-1.342c.213-.738.331-1.908.264-2.6l-.123-1.258-.299 1.35m-7.3 4.45c-.155 1.128-.192 2.141-.082 2.251.11.11.327-.723.482-1.851.155-1.128.192-2.141.082-2.251-.11-.11-.327.723-.482 1.851m6.5 1.15c-.165.743-.284 1.913-.264 2.6l.036 1.25.386-1.342c.213-.738.331-1.908.264-2.6l-.123-1.258-.299 1.35m-7.3 4.45c-.155 1.128-.192 2.141-.082 2.251.11.11.327-.723.482-1.851.155-1.128.192-2.141.082-2.251-.11-.11-.327.723-.482 1.851m6.411 2.072c-.163 1.25-.211 2.51-.107 2.8.104.29.322-.494.485-1.744.163-1.25.211-2.51.107-2.8-.104-.29-.322.494-.485 1.744m-7.223 3.666c-.149.997-.189 2.048-.088 2.337.1.289.318-.432.482-1.601.165-1.169.205-2.22.089-2.336-.116-.116-.333.604-.483 1.6m6.423 1.934c-.163 1.25-.211 2.51-.107 2.8.104.29.322-.494.485-1.744.163-1.25.211-2.51.107-2.8-.104-.29-.322.494-.485 1.744M129 200.4c-.155 1.128-.192 2.141-.082 2.251.11.11.327-.723.482-1.851.155-1.128.192-2.141.082-2.251-.11-.11-.327.723-.482 1.851m6.504 1c-.162.88-.279 2.23-.259 3l.035 1.4.377-1.6c.206-.88.323-2.23.259-3l-.116-1.4-.296 1.6M128.2 206c-.155 1.128-.192 2.141-.082 2.251.11.11.327-.723.482-1.851.155-1.128.192-2.141.082-2.251-.11-.11-.327.723-.482 1.851m6.411 2.072c-.163 1.25-.211 2.51-.107 2.8.104.29.322-.494.485-1.744.163-1.25.211-2.51.107-2.8-.104-.29-.322.494-.485 1.744m-7.193 3.454c-.165 1.169-.205 2.22-.089 2.336.285.285.802-3.275.571-3.937-.1-.289-.318.432-.482 1.601m6.393 2.146c-.163 1.25-.211 2.51-.107 2.8.104.29.322-.494.485-1.744.163-1.25.211-2.51.107-2.8-.104-.29-.322.494-.485 1.744M126.6 217.6c-.155 1.128-.192 2.141-.082 2.251.11.11.327-.723.482-1.851.155-1.128.192-2.141.082-2.251-.11-.11-.327.723-.482 1.851m6.5 1.15c-.165.743-.284 1.913-.264 2.6l.036 1.25.386-1.342c.213-.738.331-1.908.264-2.6l-.123-1.258-.299 1.35m-7.3 4.45c-.155 1.128-.192 2.141-.082 2.251.11.11.327-.723.482-1.851.155-1.128.192-2.141.082-2.251-.11-.11-.327.723-.482 1.851m6.411 2.072c-.163 1.25-.211 2.51-.107 2.8.104.29.322-.494.485-1.744.163-1.25.211-2.51.107-2.8-.104-.29-.322.494-.485 1.744m-7.193 3.454c-.165 1.169-.205 2.22-.089 2.336.285.285.802-3.275.571-3.937-.1-.289-.318.432-.482 1.601m6.393 2.146c-.163 1.25-.211 2.51-.107 2.8.104.29.322-.494.485-1.744.163-1.25.211-2.51.107-2.8-.104-.29-.322.494-.485 1.744m-7.223 3.666c-.149.997-.189 2.048-.088 2.337.1.289.318-.432.482-1.601.165-1.169.205-2.22.089-2.336-.116-.116-.333.604-.483 1.6m6.445 1.934c-.175 1.25-.233 2.51-.128 2.8.264.733.804-2.926.607-4.109-.1-.6-.281-.105-.479 1.309M123.4 240.4c-.155 1.128-.192 2.141-.082 2.251.11.11.327-.723.482-1.851.155-1.128.192-2.141.082-2.251-.11-.11-.327.723-.482 1.851m6.504 1c-.162.88-.279 2.23-.259 3l.035 1.4.377-1.6c.206-.88.323-2.23.259-3l-.116-1.4-.296 1.6M122.6 246c-.155 1.128-.192 2.141-.082 2.251.11.11.327-.723.482-1.851.155-1.128.192-2.141.082-2.251-.11-.11-.327.723-.482 1.851m6.411 2.072c-.163 1.25-.211 2.51-.107 2.8.104.29.322-.494.485-1.744.163-1.25.211-2.51.107-2.8-.104-.29-.322.494-.485 1.744m-7.193 3.454c-.165 1.169-.205 2.22-.089 2.336.285.285.802-3.275.571-3.937-.1-.289-.318.432-.482 1.601m6.486 1.474c-.162.88-.277 2.32-.256 3.2l.04 1.6.363-1.8c.2-.99.315-2.43.256-3.2l-.107-1.4-.296 1.6m-7.286 4.926c-.165 1.169-.205 2.22-.089 2.336.285.285.802-3.275.571-3.937-.1-.289-.318.432-.482 1.601m6.429 1.811c-.169 1.065-.215 2.028-.103 2.141.292.291.761-2.454.57-3.338-.087-.407-.298.131-.467 1.197m-6.998 1.463c-.033.33-.16 1.05-.282 1.6-.192.864-.16.903.232.288.249-.391.376-1.111.282-1.6-.095-.488-.199-.618-.232-.288m6.004 2.703c-.534 1.875-3.521 5.677-8.325 10.597-1.665 1.705-2.837 3.1-2.606 3.1.492 0 3.612-3.232 7.63-7.905 2.829-3.291 4.206-5.699 3.931-6.876-.08-.341-.364.147-.63 1.084m-9.092 3.997c-.844 1.045-2.981 3.486-4.748 5.425-1.767 1.938-3.285 3.728-3.372 3.976-.196.558 8.054-8.549 9.191-10.145 1.294-1.818.622-1.351-1.071.744" fill="#9adbc7"></path>
    </g>
  </symbol>
  <symbol xmlns="http://www.w3.org/2000/svg" viewBox="0 0 24 24" id="mailchimp">
    <title>MailChimp icon</title>
    <path d="M11.267 0C6.791-.015-1.82 10.246 1.397 12.964l.79.669a3.88 3.88 0 00-.22 1.792c.084.84.518 1.644 1.22 2.266.666.59 1.542.964 2.392.964 1.406 3.24 4.62 5.228 8.386 5.34 4.04.12 7.433-1.776 8.854-5.182.093-.24.488-1.316.488-2.267 0-.956-.54-1.352-.885-1.352-.01-.037-.078-.286-.172-.586-.093-.3-.19-.51-.19-.51.375-.563.382-1.065.332-1.35-.053-.353-.2-.653-.496-.964-.296-.311-.902-.63-1.753-.868l-.446-.124c-.002-.019-.024-1.053-.043-1.497-.014-.32-.042-.822-.197-1.315-.186-.668-.508-1.253-.911-1.627 1.112-1.152 1.806-2.422 1.804-3.511-.003-2.095-2.576-2.729-5.746-1.416l-.672.285A678.22 678.22 0 0012.7.504C12.304.159 11.817.002 11.267 0zm.073.873c.166 0 .322.019.465.058.297.084 1.28 1.224 1.28 1.224s-1.826 1.013-3.52 2.426c-2.28 1.757-4.005 4.311-5.037 7.082-.811.158-1.526.618-1.963 1.253-.261-.218-.748-.64-.834-.804-.698-1.326.761-3.902 1.781-5.357C5.834 3.44 9.37.867 11.34.873zm3.286 3.273c.04-.002.06.05.028.074-.143.11-.299.26-.413.414a.04.04 0 00.031.064c.659.004 1.587.235 2.192.574.041.023.012.103-.034.092-.915-.21-2.414-.369-3.97.01-1.39.34-2.45.863-3.224 1.426-.04.028-.086-.023-.055-.06.896-1.035 1.999-1.935 2.987-2.44.034-.018.07.019.052.052-.079.143-.23.447-.278.678-.007.035.032.063.062.042.615-.42 1.684-.868 2.622-.926zm3.023 3.205l.056.001a.896.896 0 01.456.146c.534.355.61 1.216.638 1.845.015.36.059 1.229.074 1.478.034.571.184.651.487.751.17.057.33.098.563.164.706.198 1.125.4 1.39.658.157.162.23.333.253.497.083.608-.472 1.36-1.942 2.041-1.607.746-3.557.935-4.904.785l-.471-.053c-1.078-.145-1.693 1.247-1.046 2.201.417.615 1.552 1.015 2.688 1.015 2.604 0 4.605-1.111 5.35-2.072a.987.987 0 00.06-.085c.036-.055.006-.085-.04-.054-.608.416-3.31 2.069-6.2 1.571 0 0-.351-.057-.672-.182-.255-.1-.788-.344-.853-.891 2.333.72 3.801.039 3.801.039a.072.072 0 00.042-.072.067.067 0 00-.074-.06s-1.911.283-3.718-.378c.197-.64.72-.408 1.51-.345a11.045 11.045 0 003.647-.394c.818-.234 1.892-.697 2.727-1.356.281.618.38 1.299.38 1.299s.219-.04.4.073c.173.106.299.326.213.895-.176 1.063-.628 1.926-1.387 2.72a5.714 5.714 0 01-1.666 1.244c-.34.18-.704.334-1.087.46-2.863.935-5.794-.093-6.739-2.3a3.545 3.545 0 01-.189-.522c-.403-1.455-.06-3.2 1.008-4.299.065-.07.132-.153.132-.256 0-.087-.055-.179-.102-.243-.374-.543-1.669-1.466-1.409-3.254.187-1.284 1.31-2.189 2.357-2.135.089.004.177.01.266.015.453.027.85.085 1.223.1.625.028 1.187-.063 1.853-.618.225-.187.405-.35.71-.401.028-.005.092-.028.215-.028zm.022 2.18a.42.42 0 00-.06.005c-.335.054-.347.468-.228 1.04.068.32.187.595.32.765.175-.02.343-.022.498 0 .089-.205.104-.557.024-.942-.112-.535-.261-.872-.554-.868zm-3.66 1.546a1.724 1.724 0 00-1.016.326c-.16.117-.311.28-.29.378.008.032.031.056.088.063.131.015.592-.217 1.122-.25.374-.023.684.094.923.2.239.104.386.173.443.113.037-.038.026-.11-.031-.204-.118-.192-.36-.387-.618-.497a1.601 1.601 0 00-.621-.129zm4.082.81c-.171-.003-.313.186-.317.42-.004.236.131.43.303.432.172.003.314-.185.318-.42.004-.236-.132-.429-.304-.432zm-3.58.172c-.05 0-.102.002-.155.008-.311.05-.483.152-.593.247-.094.082-.152.173-.152.237a.075.075 0 00.075.076c.07 0 .228-.063.228-.063a1.98 1.98 0 011.001-.104c.157.018.23.027.265-.026.01-.016.022-.049-.01-.1-.063-.103-.311-.269-.66-.275zm2.26.4c-.127 0-.235.051-.283.148-.075.154.035.363.246.466.21.104.443.063.52-.09.075-.155-.035-.364-.246-.467a.542.542 0 00-.237-.058zm-11.635.024c.048 0 .098 0 .149.003.73.04 1.806.6 2.052 2.19.217 1.41-.128 2.843-1.449 3.069-.123.02-.248.029-.374.026-1.22-.033-2.539-1.132-2.67-2.435-.145-1.44.591-2.548 1.894-2.811.117-.024.252-.04.398-.042zm-.07.927a1.144 1.144 0 00-.847.364c-.38.418-.439.988-.366 1.19.027.073.07.094.1.098.064.008.16-.039.22-.2a1.2 1.2 0 00.017-.052 1.58 1.58 0 01.157-.37.689.689 0 01.955-.199c.266.174.369.5.255.81-.058.161-.154.469-.133.721.043.511.357.717.64.738.274.01.466-.143.515-.256.029-.067.005-.107-.011-.125-.043-.053-.113-.037-.18-.021a.638.638 0 01-.16.022.347.347 0 01-.294-.148c-.078-.12-.073-.3.013-.504.011-.028.025-.058.04-.092.138-.308.368-.825.11-1.317-.195-.37-.513-.602-.894-.65a1.135 1.135 0 00-.138-.01z"></path>
  </symbol>
  <symbol xmlns="http://www.w3.org/2000/svg" viewBox="0 0 24 24" id="menu">
    <title>Microsoft Excel icon</title>
    <path d="M23 1.5q.41 0 .7.3.3.29.3.7v19q0 .41-.3.7-.29.3-.7.3H7q-.41 0-.7-.3-.3-.29-.3-.7V18H1q-.41 0-.7-.3-.3-.29-.3-.7V7q0-.41.3-.7Q.58 6 1 6h5V2.5q0-.41.3-.7.29-.3.7-.3zM6 13.28l1.42 2.66h2.14l-2.38-3.87 2.34-3.8H7.46l-1.3 2.4-.05.08-.04.09-.64-1.28-.66-1.29H2.59l2.27 3.82-2.48 3.85h2.16zM14.25 21v-3H7.5v3zm0-4.5v-3.75H12v3.75zm0-5.25V7.5H12v3.75zm0-5.25V3H7.5v3zm8.25 15v-3h-6.75v3zm0-4.5v-3.75h-6.75v3.75zm0-5.25V7.5h-6.75v3.75zm0-5.25V3h-6.75v3z"></path>
  </symbol>
  <symbol xmlns="http://www.w3.org/2000/svg" viewBox="0 0 24 24" id="microsoftexcel">
    <path d="M21.5 24h-19A2.503 2.503 0 010 21.5v-19C0 1.122 1.121 0 2.5 0h19C22.879 0 24 1.122 24 2.5v19c0 1.378-1.121 2.5-2.5 2.5zM2.5 1C1.673 1 1 1.673 1 2.5v19c0 .827.673 1.5 1.5 1.5h19c.827 0 1.5-.673 1.5-1.5v-19c0-.827-.673-1.5-1.5-1.5z"></path>
    <path d="M16.5 8h-9a.5.5 0 010-1h9a.5.5 0 010 1zm0 4.5h-9a.5.5 0 010-1h9a.5.5 0 010 1zm0 4.5h-9a.5.5 0 010-1h9a.5.5 0 010 1z"></path>
  </symbol>
  <symbol xmlns="http://www.w3.org/2000/svg" viewBox="0 0 24 24" id="mocha">
    <title>Mocha icon</title>
    <path d="M13.325 0c-.907 1.116-2.442 2.302-.768 4.814.558.628.838 1.953.768 2.372 0 0 2.512-1.464.977-4.116-.907-1.395-1.326-2.582-.977-3.07zm-2.79 2.582c-.628.767-1.605 1.535-.489 3.279.35.349.489 1.256.489 1.535 0 0 1.673-.978.627-2.792-.628-.907-.906-1.743-.627-2.022zm-5.094 6a.699.699 0 00-.697.698c0 2.372.349 10.535 3.837 14.512.14.139.28.208.489.208h5.86c.21 0 .35-.069.489-.208 3.488-3.908 3.837-12.07 3.837-14.512a.7.7 0 00-.698-.699H12zm2.023 2.163h9.21c.349 0 .697.278.697.697 0 1.953-.348 7.465-2.72 10.326-.21.14-.35.208-.559.208H9.976a.633.633 0 01-.488-.208c-2.372-2.79-2.652-8.373-2.722-10.326 0-.35.28-.697.698-.697zm8.792 4.744s-.071.627-1.745 1.255c-2.303.837-6.348.28-6.348.28.349 1.465.906 2.86 1.743 3.907.07.14.28.209.419.209h3.489c.14 0 .279-.07.418-.209 1.186-1.395 1.745-3.558 2.024-5.442z"></path>
  </symbol>
  <symbol xmlns="http://www.w3.org/2000/svg" viewBox="0 0 24 24" id="mysql">
    <title>MySQL icon</title>
    <path d="M16.405 5.501c-.115 0-.193.014-.274.033v.013h.014c.054.104.146.18.214.273.054.107.1.214.154.32l.014-.015c.094-.066.14-.172.14-.333-.04-.047-.046-.094-.08-.14-.04-.067-.126-.1-.18-.153zM5.77 18.695h-.927a50.854 50.854 0 00-.27-4.41h-.008l-1.41 4.41H2.45l-1.4-4.41h-.01a72.892 72.892 0 00-.195 4.41H0c.055-1.966.192-3.81.41-5.53h1.15l1.335 4.064h.008l1.347-4.064h1.095c.242 2.015.384 3.86.428 5.53zm4.017-4.08c-.378 2.045-.876 3.533-1.492 4.46-.482.716-1.01 1.073-1.583 1.073-.153 0-.34-.046-.566-.138v-.494c.11.017.24.026.386.026.268 0 .483-.075.647-.222.197-.18.295-.382.295-.605 0-.155-.077-.47-.23-.944L6.23 14.615h.91l.727 2.36c.164.536.233.91.205 1.123.4-1.064.678-2.227.835-3.483zm12.325 4.08h-2.63v-5.53h.885v4.85h1.745zm-3.32.135l-1.016-.5c.09-.076.177-.158.255-.25.433-.506.648-1.258.648-2.253 0-1.83-.718-2.746-2.155-2.746-.704 0-1.254.232-1.65.697-.43.508-.646 1.256-.646 2.245 0 .972.19 1.686.574 2.14.35.41.877.615 1.583.615.264 0 .506-.033.725-.098l1.325.772.36-.622zM15.5 17.588c-.225-.36-.337-.94-.337-1.736 0-1.393.424-2.09 1.27-2.09.443 0 .77.167.977.5.224.362.336.936.336 1.723 0 1.404-.424 2.108-1.27 2.108-.445 0-.77-.167-.978-.5zm-1.658-.425c0 .47-.172.856-.516 1.156-.344.3-.803.45-1.384.45-.543 0-1.064-.172-1.573-.515l.237-.476c.438.22.833.328 1.19.328.332 0 .593-.073.783-.22a.754.754 0 00.3-.615c0-.33-.23-.61-.648-.845-.388-.213-1.163-.657-1.163-.657-.422-.307-.632-.636-.632-1.177 0-.45.157-.81.47-1.085.315-.278.72-.415 1.22-.415.512 0 .98.136 1.4.41l-.213.476a2.726 2.726 0 00-1.064-.23c-.283 0-.502.068-.654.206a.685.685 0 00-.248.524c0 .328.234.61.666.85.393.215 1.187.67 1.187.67.433.305.648.63.648 1.168zm9.382-5.852c-.535-.014-.95.04-1.297.188-.1.04-.26.04-.274.167.055.053.063.14.11.214.08.134.218.313.346.407.14.11.28.216.427.31.26.16.555.255.81.416.145.094.293.213.44.313.073.05.12.14.214.172v-.02c-.046-.06-.06-.147-.105-.214-.067-.067-.134-.127-.2-.193a3.223 3.223 0 00-.695-.675c-.214-.146-.682-.35-.77-.595l-.013-.014c.146-.013.32-.066.46-.106.227-.06.435-.047.67-.106.106-.027.213-.06.32-.094v-.06c-.12-.12-.21-.283-.334-.395a8.867 8.867 0 00-1.104-.823c-.21-.134-.476-.22-.697-.334-.08-.04-.214-.06-.26-.127-.12-.146-.19-.34-.275-.514a17.69 17.69 0 01-.547-1.163c-.12-.262-.193-.523-.34-.763-.69-1.137-1.437-1.826-2.586-2.5-.247-.14-.543-.2-.856-.274-.167-.008-.334-.02-.5-.027-.11-.047-.216-.174-.31-.235-.38-.24-1.364-.76-1.644-.072-.18.434.267.862.422 1.082.115.153.26.328.34.5.047.116.06.235.107.356.106.294.207.622.347.897.073.14.153.287.247.413.054.073.146.107.167.227-.094.136-.1.334-.154.5-.24.757-.146 1.693.194 2.25.107.166.362.534.703.393.3-.12.234-.5.32-.835.02-.08.007-.133.048-.187v.015c.094.188.188.367.274.555.206.328.566.668.867.895.16.12.287.328.487.402v-.02h-.015c-.043-.058-.1-.086-.154-.133a3.445 3.445 0 01-.35-.4 8.76 8.76 0 01-.747-1.218c-.11-.21-.202-.436-.29-.643-.04-.08-.04-.2-.107-.24-.1.146-.247.273-.32.453-.127.288-.14.642-.188 1.01-.027.007-.014 0-.027.014-.214-.052-.287-.274-.367-.46-.2-.475-.233-1.238-.06-1.785.047-.14.247-.582.167-.716-.042-.127-.174-.2-.247-.303a2.478 2.478 0 01-.24-.427c-.16-.374-.24-.788-.414-1.162-.08-.173-.22-.354-.334-.513-.127-.18-.267-.307-.368-.52-.033-.073-.08-.194-.027-.274.014-.054.042-.075.094-.09.088-.072.335.022.422.062.247.1.455.194.662.334.094.066.195.193.315.226h.14c.214.047.455.014.655.073.355.114.675.28.962.46a5.953 5.953 0 012.085 2.286c.08.154.115.295.188.455.14.33.313.663.455.982.14.315.275.636.476.897.1.14.502.213.682.286.133.06.34.115.46.188.23.14.454.3.67.454.11.076.443.243.463.378z"></path>
  </symbol>
  <symbol xmlns="http://www.w3.org/2000/svg" viewBox="0 0 24 24" id="next-dot-js">
    <title>Next.js icon</title>
    <path d="M11.572 0c-.176 0-.31.001-.358.007a19.76 19.76 0 01-.364.033c-3.407.306-6.6 2.145-8.622 4.972a11.875 11.875 0 00-2.119 5.243c-.096.659-.108.854-.108 1.747s.012 1.089.108 1.748c.652 4.506 3.86 8.292 8.209 9.695.779.25 1.6.422 2.534.525.363.04 1.935.04 2.299 0 1.611-.178 2.977-.577 4.323-1.264.207-.106.247-.134.219-.158-.02-.013-.9-1.193-1.955-2.62l-1.919-2.592-2.404-3.558a338.739 338.739 0 00-2.422-3.556c-.009-.002-.018 1.579-.023 3.51-.007 3.38-.01 3.515-.052 3.595a.426.426 0 01-.206.214c-.075.037-.14.044-.495.044H7.81l-.108-.068a.438.438 0 01-.157-.171l-.05-.106.006-4.703.007-4.705.072-.092a.645.645 0 01.174-.143c.096-.047.134-.051.54-.051.478 0 .558.018.682.154a466.83 466.83 0 012.895 4.361 10760.433 10760.433 0 004.735 7.17l1.9 2.879.096-.063a12.317 12.317 0 002.466-2.163 11.944 11.944 0 002.824-6.134c.096-.66.108-.854.108-1.748 0-.893-.012-1.088-.108-1.747-.652-4.506-3.859-8.292-8.208-9.695a12.597 12.597 0 00-2.499-.523A33.119 33.119 0 0011.573 0zm4.069 7.217c.347 0 .408.005.486.047a.473.473 0 01.237.277c.018.06.023 1.365.018 4.304l-.006 4.218-.744-1.14-.746-1.14v-3.066c0-1.982.01-3.097.023-3.15a.478.478 0 01.233-.296c.096-.05.13-.054.5-.054z"></path>
  </symbol>
  <symbol xmlns="http://www.w3.org/2000/svg" viewBox="0 0 24 24" id="node-dot-js">
    <title>Node.js icon</title>
    <path d="M11.998 24c-.321 0-.641-.084-.922-.247L8.14 22.016c-.438-.245-.224-.332-.08-.383.585-.203.703-.25 1.328-.604.065-.037.151-.023.218.017l2.256 1.339a.29.29 0 00.272 0l8.795-5.076a.277.277 0 00.134-.238V6.921a.283.283 0 00-.137-.242l-8.791-5.072a.278.278 0 00-.271 0L3.075 6.68a.284.284 0 00-.139.241v10.15a.27.27 0 00.139.235l2.409 1.392c1.307.654 2.108-.116 2.108-.89V7.787c0-.142.114-.253.256-.253h1.115c.139 0 .255.112.255.253v10.021c0 1.745-.95 2.745-2.604 2.745-.508 0-.909 0-2.026-.551L2.28 18.675a1.856 1.856 0 01-.922-1.604V6.921c0-.659.353-1.275.922-1.603L11.075.236a1.925 1.925 0 011.848 0l8.794 5.082c.57.329.924.944.924 1.603v10.15a1.86 1.86 0 01-.924 1.604l-8.794 5.078c-.28.163-.599.247-.925.247zm7.101-10.007c0-1.9-1.284-2.406-3.987-2.763-2.731-.361-3.009-.548-3.009-1.187 0-.528.235-1.233 2.258-1.233 1.807 0 2.473.389 2.747 1.607a.254.254 0 00.247.199h1.141a.26.26 0 00.186-.081.257.257 0 00.067-.196c-.177-2.098-1.571-3.076-4.388-3.076-2.508 0-4.004 1.058-4.004 2.833 0 1.925 1.488 2.457 3.895 2.695 2.88.282 3.103.703 3.103 1.269 0 .983-.789 1.402-2.642 1.402-2.327 0-2.839-.584-3.011-1.742a.255.255 0 00-.253-.215h-1.137a.252.252 0 00-.254.253c0 1.482.806 3.248 4.655 3.248 2.788.001 4.386-1.096 4.386-3.013z"></path>
  </symbol>
  <symbol xmlns="http://www.w3.org/2000/svg" viewBox="0 0 24 24" id="npm">
    <title>npm icon</title>
    <path d="M1.763 0C.786 0 0 .786 0 1.763v20.474C0 23.214.786 24 1.763 24h20.474c.977 0 1.763-.786 1.763-1.763V1.763C24 .786 23.214 0 22.237 0zM5.13 5.323l13.837.019-.009 13.836h-3.464l.01-10.382h-3.456L12.04 19.17H5.113z"></path>
  </symbol>
  <symbol xmlns="http://www.w3.org/2000/svg" viewBox="0 0 24 24" id="php">
    <title>PHP icon</title>
    <path d="M7.01 10.207h-.944l-.515 2.648h.838c.556 0 .97-.105 1.242-.314.272-.21.455-.559.55-1.049.092-.47.05-.802-.124-.995-.175-.193-.523-.29-1.047-.29zM12 5.688C5.373 5.688 0 8.514 0 12s5.373 6.313 12 6.313S24 15.486 24 12c0-3.486-5.373-6.312-12-6.312zm-3.26 7.451c-.261.25-.575.438-.917.551-.336.108-.765.164-1.285.164H5.357l-.327 1.681H3.652l1.23-6.326h2.65c.797 0 1.378.209 1.744.628.366.418.476 1.002.33 1.752a2.836 2.836 0 01-.305.847c-.143.255-.33.49-.561.703zm4.024.715l.543-2.799c.063-.318.039-.536-.068-.651-.107-.116-.336-.174-.687-.174H11.46l-.704 3.625H9.388l1.23-6.327h1.367l-.327 1.682h1.218c.767 0 1.295.134 1.586.401s.378.7.263 1.299l-.572 2.944h-1.389zm7.597-2.265a2.782 2.782 0 01-.305.847c-.143.255-.33.49-.561.703a2.44 2.44 0 01-.917.551c-.336.108-.765.164-1.286.164h-1.18l-.327 1.682h-1.378l1.23-6.326h2.649c.797 0 1.378.209 1.744.628.366.417.477 1.001.331 1.751zm-2.595-1.382h-.943l-.516 2.648h.838c.557 0 .971-.105 1.242-.314.272-.21.455-.559.551-1.049.092-.47.049-.802-.125-.995s-.524-.29-1.047-.29z"></path>
  </symbol>
  <symbol xmlns="http://www.w3.org/2000/svg" viewBox="0 0 24 24" id="python">
    <title>Python icon</title>
    <path d="M14.25.18l.9.2.73.26.59.3.45.32.34.34.25.34.16.33.1.3.04.26.02.2-.01.13V8.5l-.05.63-.13.55-.21.46-.26.38-.3.31-.33.25-.35.19-.35.14-.33.1-.3.07-.26.04-.21.02H8.77l-.69.05-.59.14-.5.22-.41.27-.33.32-.27.35-.2.36-.15.37-.1.35-.07.32-.04.27-.02.21v3.06H3.17l-.21-.03-.28-.07-.32-.12-.35-.18-.36-.26-.36-.36-.35-.46-.32-.59-.28-.73-.21-.88-.14-1.05-.05-1.23.06-1.22.16-1.04.24-.87.32-.71.36-.57.4-.44.42-.33.42-.24.4-.16.36-.1.32-.05.24-.01h.16l.06.01h8.16v-.83H6.18l-.01-2.75-.02-.37.05-.34.11-.31.17-.28.25-.26.31-.23.38-.2.44-.18.51-.15.58-.12.64-.1.71-.06.77-.04.84-.02 1.27.05zm-6.3 1.98l-.23.33-.08.41.08.41.23.34.33.22.41.09.41-.09.33-.22.23-.34.08-.41-.08-.41-.23-.33-.33-.22-.41-.09-.41.09zm13.09 3.95l.28.06.32.12.35.18.36.27.36.35.35.47.32.59.28.73.21.88.14 1.04.05 1.23-.06 1.23-.16 1.04-.24.86-.32.71-.36.57-.4.45-.42.33-.42.24-.4.16-.36.09-.32.05-.24.02-.16-.01h-8.22v.82h5.84l.01 2.76.02.36-.05.34-.11.31-.17.29-.25.25-.31.24-.38.2-.44.17-.51.15-.58.13-.64.09-.71.07-.77.04-.84.01-1.27-.04-1.07-.14-.9-.2-.73-.25-.59-.3-.45-.33-.34-.34-.25-.34-.16-.33-.1-.3-.04-.25-.02-.2.01-.13v-5.34l.05-.64.13-.54.21-.46.26-.38.3-.32.33-.24.35-.2.35-.14.33-.1.3-.06.26-.04.21-.02.13-.01h5.84l.69-.05.59-.14.5-.21.41-.28.33-.32.27-.35.2-.36.15-.36.1-.35.07-.32.04-.28.02-.21V6.07h2.09l.14.01zm-6.47 14.25l-.23.33-.08.41.08.41.23.33.33.23.41.08.41-.08.33-.23.23-.33.08-.41-.08-.41-.23-.33-.33-.23-.41-.08-.41.08z"></path>
  </symbol>
  <symbol xmlns="http://www.w3.org/2000/svg" viewBox="0 0 508.044 508.044" id="quotes">
    <path d="M.108 352.536c0 66.794 54.144 120.938 120.937 120.938 66.794 0 120.938-54.144 120.938-120.938s-54.144-120.937-120.938-120.937c-13.727 0-26.867 2.393-39.168 6.61C109.093 82.118 230.814-18.543 117.979 64.303-7.138 156.17-.026 348.84.114 352.371c0 .055-.006.104-.006.165zm266.061 0c0 66.794 54.144 120.938 120.938 120.938s120.938-54.144 120.938-120.938S453.9 231.599 387.106 231.599c-13.728 0-26.867 2.393-39.168 6.61C375.154 82.118 496.875-18.543 384.04 64.303 258.923 156.17 266.034 348.84 266.175 352.371c0 .055-.006.104-.006.165z"></path>
  </symbol>
  <symbol xmlns="http://www.w3.org/2000/svg" viewBox="0 0 24 24" id="react">
    <title>React icon</title>
    <path d="M14.23 12.004a2.236 2.236 0 01-2.235 2.236 2.236 2.236 0 01-2.236-2.236 2.236 2.236 0 012.235-2.236 2.236 2.236 0 012.236 2.236zm2.648-10.69c-1.346 0-3.107.96-4.888 2.622-1.78-1.653-3.542-2.602-4.887-2.602-.41 0-.783.093-1.106.278-1.375.793-1.683 3.264-.973 6.365C1.98 8.917 0 10.42 0 12.004c0 1.59 1.99 3.097 5.043 4.03-.704 3.113-.39 5.588.988 6.38.32.187.69.275 1.102.275 1.345 0 3.107-.96 4.888-2.624 1.78 1.654 3.542 2.603 4.887 2.603.41 0 .783-.09 1.106-.275 1.374-.792 1.683-3.263.973-6.365C22.02 15.096 24 13.59 24 12.004c0-1.59-1.99-3.097-5.043-4.032.704-3.11.39-5.587-.988-6.38a2.167 2.167 0 00-1.092-.278zm-.005 1.09v.006c.225 0 .406.044.558.127.666.382.955 1.835.73 3.704-.054.46-.142.945-.25 1.44a23.476 23.476 0 00-3.107-.534A23.892 23.892 0 0012.769 4.7c1.592-1.48 3.087-2.292 4.105-2.295zm-9.77.02c1.012 0 2.514.808 4.11 2.28-.686.72-1.37 1.537-2.02 2.442a22.73 22.73 0 00-3.113.538 15.02 15.02 0 01-.254-1.42c-.23-1.868.054-3.32.714-3.707.19-.09.4-.127.563-.132zm4.882 3.05c.455.468.91.992 1.36 1.564-.44-.02-.89-.034-1.345-.034-.46 0-.915.01-1.36.034.44-.572.895-1.096 1.345-1.565zM12 8.1c.74 0 1.477.034 2.202.093.406.582.802 1.203 1.183 1.86.372.64.71 1.29 1.018 1.946-.308.655-.646 1.31-1.013 1.95-.38.66-.773 1.288-1.18 1.87a25.64 25.64 0 01-4.412.005 26.64 26.64 0 01-1.183-1.86c-.372-.64-.71-1.29-1.018-1.946a25.17 25.17 0 011.013-1.954c.38-.66.773-1.286 1.18-1.868A25.245 25.245 0 0112 8.098zm-3.635.254c-.24.377-.48.763-.704 1.16-.225.39-.435.782-.635 1.174-.265-.656-.49-1.31-.676-1.947.64-.15 1.315-.283 2.015-.386zm7.26 0c.695.103 1.365.23 2.006.387-.18.632-.405 1.282-.66 1.933a25.952 25.952 0 00-1.345-2.32zm3.063.675c.484.15.944.317 1.375.498 1.732.74 2.852 1.708 2.852 2.476-.005.768-1.125 1.74-2.857 2.475-.42.18-.88.342-1.355.493a23.966 23.966 0 00-1.1-2.98c.45-1.017.81-2.01 1.085-2.964zm-13.395.004c.278.96.645 1.957 1.1 2.98a23.142 23.142 0 00-1.086 2.964c-.484-.15-.944-.318-1.37-.5-1.732-.737-2.852-1.706-2.852-2.474 0-.768 1.12-1.742 2.852-2.476.42-.18.88-.342 1.356-.494zm11.678 4.28c.265.657.49 1.312.676 1.948-.64.157-1.316.29-2.016.39a25.819 25.819 0 001.341-2.338zm-9.945.02c.2.392.41.783.64 1.175.23.39.465.772.705 1.143a22.005 22.005 0 01-2.006-.386c.18-.63.406-1.282.66-1.933zM17.92 16.32c.112.493.2.968.254 1.423.23 1.868-.054 3.32-.714 3.708-.147.09-.338.128-.563.128-1.012 0-2.514-.807-4.11-2.28.686-.72 1.37-1.536 2.02-2.44 1.107-.118 2.154-.3 3.113-.54zm-11.83.01c.96.234 2.006.415 3.107.532.66.905 1.345 1.727 2.035 2.446-1.595 1.483-3.092 2.295-4.11 2.295a1.185 1.185 0 01-.553-.132c-.666-.38-.955-1.834-.73-3.703.054-.46.142-.944.25-1.438zm4.56.64c.44.02.89.034 1.345.034.46 0 .915-.01 1.36-.034-.44.572-.895 1.095-1.345 1.565-.455-.47-.91-.993-1.36-1.565z"></path>
  </symbol>
  <symbol xmlns="http://www.w3.org/2000/svg" viewBox="0 0 21.8 23.8" id="sass">
    <path d="M.1 8.6a8.7 8.7 0 00.8 4.8 1 1 0 001.2.4.8.8 0 00.4-1.2 8.3 8.3 0 01-.7-3.8A7.62 7.62 0 0117 9.9a7.7 7.7 0 01-11.8 5.8.8.8 0 00-1.2.2.9.9 0 00.2 1.3 10 10 0 004.5 1.5 9.3 9.3 0 006.1-1.7l5.5 6.4a.9.9 0 00.6.3.7.7 0 00.7-.2.9.9 0 00.1-1.2l-5.6-6.4a8.9 8.9 0 002.6-5.8A9.33 9.33 0 10.1 8.6z" fill="#ecf6fc"></path>
  </symbol>
  <symbol xmlns="http://www.w3.org/2000/svg" viewBox="0 0 485.656 485.656" id="search">
    <path d="M334.512 312h-200a8 8 0 00-5.656 2.344l-96 96 11.312 11.312L137.824 328h187.888c-1.664 9.496-6.888 24-23.2 24h-88v16h88c31.64 0 40-31.4 40-48a8 8 0 00-8-8z"></path>
    <path d="M436.168 258.344a8 8 0 00-11.312 0l-72 72 11.312 11.312 65.712-65.712c10.828 14.37 8.629 34.68-5.024 46.4L331.2 416H166.512a8 8 0 00-5.656 2.344l-56 56 11.312 11.312L169.824 432h164.688a8 8 0 005.656-2.344l96-96c29.792-29.792 13.024-62.288 0-75.312zM390.512 112H361.76a111.297 111.297 0 00-8.792-21.192l20.344-20.344a8 8 0 000-11.312L339.36 25.208a8 8 0 00-11.312 0l-20.344 20.344a110.95 110.95 0 00-21.192-8.8V8a8 8 0 00-8-8h-48a8 8 0 00-8 8v28.752a110.95 110.95 0 00-21.192 8.8l-20.344-20.344a8 8 0 00-11.312 0l-33.952 33.944a8 8 0 000 11.312l20.352 20.344a111.392 111.392 0 00-8.8 21.192h-28.752a8 8 0 00-8 8v48a8 8 0 008 8h28.752a111.297 111.297 0 008.792 21.192l-20.344 20.344a8 8 0 000 11.312l33.952 33.952a8.232 8.232 0 0011.312 0l20.344-20.352a111.392 111.392 0 0021.192 8.8V280a8 8 0 008 8h48a8 8 0 008-8v-28.752a111.454 111.454 0 0021.192-8.792l20.344 20.344a8 8 0 0011.312 0l33.944-33.952a8 8 0 000-11.312l-20.344-20.344a111.392 111.392 0 008.8-21.192h28.752a8 8 0 008-8v-48a8 8 0 00-8-8zm-7.999 48h-26.888a8 8 0 00-7.784 6.16 95.729 95.729 0 01-11.68 28.144 8.001 8.001 0 001.152 9.864l19.032 19.024-22.64 22.64-19.024-19.04a8.001 8.001 0 00-9.864-1.152 95.436 95.436 0 01-28.144 11.688 8 8 0 00-6.16 7.784V272h-32v-26.88a8 8 0 00-6.16-7.784 95.436 95.436 0 01-28.144-11.688 8.001 8.001 0 00-9.864 1.152l-19.024 19.04-22.64-22.64 19.032-19.04a8.001 8.001 0 001.152-9.864 95.74 95.74 0 01-11.68-28.144 8 8 0 00-7.784-6.16h-26.888v-32H153.4a8 8 0 007.784-6.16 95.74 95.74 0 0111.68-28.144 8.001 8.001 0 00-1.152-9.864L152.68 64.8l22.632-22.624 19.032 19.032a8.001 8.001 0 009.864 1.152 95.198 95.198 0 0128.144-11.68 8 8 0 006.16-7.784V16h32v26.896a8 8 0 006.168 7.784 95.198 95.198 0 0128.144 11.68 8.001 8.001 0 009.864-1.152l19.024-19.032L356.345 64.8l-19.032 19.032a8.001 8.001 0 00-1.152 9.864 95.74 95.74 0 0111.68 28.144 8 8 0 007.784 6.16h26.888v32z"></path>
    <path d="M254.512 96c-26.51 0-48 21.49-48 48s21.491 48 48 48c26.499-.026 47.974-21.501 48-48 0-26.51-21.49-48-48-48zm0 80c-17.673 0-32-14.327-32-32 0-17.673 14.327-32 32-32 17.673 0 32 14.327 32 32 0 17.673-14.327 32-32 32z"></path>
  </symbol>
  <symbol xmlns="http://www.w3.org/2000/svg" viewBox="0 0 24 24" id="settings">
    <title>Sass icon</title>
    <path d="M12 0c6.627 0 12 5.373 12 12s-5.373 12-12 12S0 18.627 0 12 5.373 0 12 0zM9.615 15.998c.175.645.156 1.248-.024 1.792l-.065.18c-.024.061-.052.12-.078.176-.14.29-.326.56-.555.81-.698.759-1.672 1.047-2.09.805-.45-.262-.226-1.335.584-2.19.871-.918 2.12-1.509 2.12-1.509v-.003l.108-.061zm9.911-10.861c-.542-2.133-4.077-2.834-7.422-1.645-1.989.707-4.144 1.818-5.693 3.267C4.568 8.48 4.275 9.98 4.396 10.607c.427 2.211 3.457 3.657 4.703 4.73v.006c-.367.18-3.056 1.529-3.686 2.925-.675 1.47.105 2.521.615 2.655 1.575.436 3.195-.36 4.065-1.649.84-1.261.766-2.881.404-3.676.496-.135 1.08-.195 1.83-.104 2.101.24 2.521 1.56 2.43 2.1-.09.539-.523.854-.674.944-.15.091-.195.12-.181.181.015.09.091.09.21.075.165-.03 1.096-.45 1.141-1.471.045-1.29-1.186-2.729-3.375-2.7-.9.016-1.471.091-1.875.256a.362.362 0 00-.105-.105c-1.35-1.455-3.855-2.475-3.75-4.41.03-.705.285-2.564 4.8-4.814 3.705-1.846 6.661-1.335 7.171-.21.733 1.604-1.576 4.59-5.431 5.024-1.47.165-2.235-.404-2.431-.615-.209-.225-.239-.24-.314-.194-.12.06-.045.255 0 .375.12.3.585.825 1.396 1.095.704.225 2.43.359 4.5-.45 2.324-.899 4.139-3.405 3.614-5.505l.073.067z"></path>
  </symbol>
  <symbol xmlns="http://www.w3.org/2000/svg" viewBox="0 0 24 24" id="sketch">
    <title>Sketch icon</title>
    <path d="M12 1.25l6.75 6.637V2L12 1.25zm0 0l-6.05 7h12.1l-6.05-7zm0 0L5.25 2v5.887L12 1.25zM5.25 2L0 9l4.416-.68L5.25 2zM0 9l11.959 13.703.008-.014L4.443 9H0zm18.75-7l.834 6.32L24 9l-5.25-7zM24 9h-4.506l-7.523 13.69.029.06L24 9zM12 22.75l-.031-.057-.008.012.039.045zM5.436 9l6.533 13.686L18.564 9H5.436z"></path>
  </symbol>
  <symbol xmlns="http://www.w3.org/2000/svg" viewBox="0 0 24 24" id="slack">
    <title>Slack icon</title>
    <path d="M5.042 15.165a2.528 2.528 0 01-2.52 2.523A2.528 2.528 0 010 15.165a2.527 2.527 0 012.522-2.52h2.52v2.52zm1.271 0a2.527 2.527 0 012.521-2.52 2.527 2.527 0 012.521 2.52v6.313A2.528 2.528 0 018.834 24a2.528 2.528 0 01-2.521-2.522v-6.313zM8.834 5.042a2.528 2.528 0 01-2.521-2.52A2.528 2.528 0 018.834 0a2.528 2.528 0 012.521 2.522v2.52H8.834zm0 1.271a2.528 2.528 0 012.521 2.521 2.528 2.528 0 01-2.521 2.521H2.522A2.528 2.528 0 010 8.834a2.528 2.528 0 012.522-2.521h6.312zm10.122 2.521a2.528 2.528 0 012.522-2.521A2.528 2.528 0 0124 8.834a2.528 2.528 0 01-2.522 2.521h-2.522V8.834zm-1.268 0a2.528 2.528 0 01-2.523 2.521 2.527 2.527 0 01-2.52-2.521V2.522A2.527 2.527 0 0115.165 0a2.528 2.528 0 012.523 2.522v6.312zm-2.523 10.122a2.528 2.528 0 012.523 2.522A2.528 2.528 0 0115.165 24a2.527 2.527 0 01-2.52-2.522v-2.522h2.52zm0-1.268a2.527 2.527 0 01-2.52-2.523 2.526 2.526 0 012.52-2.52h6.313A2.527 2.527 0 0124 15.165a2.528 2.528 0 01-2.522 2.523h-6.313z"></path>
  </symbol>
  <symbol xmlns="http://www.w3.org/2000/svg" viewBox="0 0 512 512" id="snap">
    <path d="M460.646 10H43.938C25.224 10 10 25.521 10 44.6v420.122c0 19.078 15.224 34.6 33.89 34.6 3.139.025 315.346 2.492 438.5 2.679h.03a19.282 19.282 0 0013.827-5.813A19.917 19.917 0 00502 481.77l-7.421-437.793C494.249 25.242 479.026 10 460.646 10zM43.938 22h416.708c11.879 0 21.719 9.954 21.935 22.184l6.511 384.244-96.777-99.462a33.563 33.563 0 00-54.35-3.721l-45.03 53.805a21.4 21.4 0 01-18.452 7.764 21.636 21.636 0 01-17.013-10.959l-81.253-140.576a33.583 33.583 0 00-56.1-3.578L22 345.014V44.6C22 32.138 31.841 22 43.938 22zm443.767 465.764a7.377 7.377 0 01-5.282 2.236h-.011c-123.12-.187-435.288-2.654-438.474-2.679-12.1 0-21.938-10.138-21.938-22.6V363.346L129.321 239.4l.271-.337a21.585 21.585 0 0136.236 2.221L247.08 381.86a33.576 33.576 0 0055.057 4.892l45.03-53.805a21.57 21.57 0 0135.25 2.83l.356.591L489.388 445.94l.612 36.028a8.007 8.007 0 01-2.295 5.796z"></path>
    <path d="M284.988 218.5c29.7 0 53.864-24.671 53.864-54.995s-24.164-54.995-53.864-54.995-53.863 24.671-53.863 54.995 24.163 54.995 53.863 54.995zm0-97.99c23.084 0 41.864 19.287 41.864 42.995s-18.78 43-41.864 43-41.863-19.288-41.863-42.995 18.775-42.996 41.863-42.996z"></path>
  </symbol>
  <symbol xmlns="http://www.w3.org/2000/svg" viewBox="0 0 24 24" id="three-dot-js">
    <title>Three.js icon</title>
    <path d="M.38 0a.268.268 0 00-.256.332l2.894 11.716a.268.268 0 00.01.04l2.89 11.708a.268.268 0 00.447.128L23.802 7.15a.268.268 0 00-.112-.45l-5.784-1.667a.268.268 0 00-.123-.035L6.38 1.715a.268.268 0 00-.144-.04L.456.01A.268.268 0 00.38 0zm.374.654L5.71 2.08 1.99 5.664zM6.61 2.34l4.864 1.4-3.65 3.515zm-.522.12l1.217 4.926-4.877-1.4zm6.28 1.538l4.878 1.404-3.662 3.53zm-.52.13l1.208 4.9-4.853-1.392zm6.3 1.534l4.947 1.424-3.715 3.574zm-.524.12l1.215 4.926-4.876-1.398zm-15.432.696l4.964 1.424-3.726 3.586zM8.047 8.15l4.877 1.4-3.66 3.527zm-.518.137l1.236 5.017-4.963-1.432zm6.274 1.535l4.965 1.425-3.73 3.586zm-.52.127l1.235 5.012-4.958-1.43zm-9.63 2.438l4.873 1.406-3.656 3.523zm5.854 1.687l4.863 1.403-3.648 3.51zm-.54.04l1.214 4.927-4.875-1.4zm-3.896 4.02l5.037 1.442-3.782 3.638z"></path>
  </symbol>
  <symbol xmlns="http://www.w3.org/2000/svg" viewBox="0 0 16 11" id="tick">
    <path d="M2 4l4 4 8-8" fill="none" stroke="#2dd5a7" stroke-width="2"></path>
  </symbol>
  <symbol xmlns="http://www.w3.org/2000/svg" viewBox="0 0 24 24" id="twitter">
    <title>Twitter icon</title>
    <path d="M23.953 4.57a10 10 0 01-2.825.775 4.958 4.958 0 002.163-2.723c-.951.555-2.005.959-3.127 1.184a4.92 4.92 0 00-8.384 4.482C7.69 8.095 4.067 6.13 1.64 3.162a4.822 4.822 0 00-.666 2.475c0 1.71.87 3.213 2.188 4.096a4.904 4.904 0 01-2.228-.616v.06a4.923 4.923 0 003.946 4.827 4.996 4.996 0 01-2.212.085 4.936 4.936 0 004.604 3.417 9.867 9.867 0 01-6.102 2.105c-.39 0-.779-.023-1.17-.067a13.995 13.995 0 007.557 2.209c9.053 0 13.998-7.496 13.998-13.985 0-.21 0-.42-.015-.63A9.935 9.935 0 0024 4.59z"></path>
  </symbol>
  <symbol xmlns="http://www.w3.org/2000/svg" viewBox="0 0 24 24" id="visualstudiocode">
    <title>Visual Studio Code icon</title>
    <path d="M23.15 2.587L18.21.21a1.494 1.494 0 00-1.705.29l-9.46 8.63-4.12-3.128a.999.999 0 00-1.276.057L.327 7.261A1 1 0 00.326 8.74L3.899 12 .326 15.26a1 1 0 00.001 1.479L1.65 17.94a.999.999 0 001.276.057l4.12-3.128 9.46 8.63a1.492 1.492 0 001.704.29l4.942-2.377A1.5 1.5 0 0024 20.06V3.939a1.5 1.5 0 00-.85-1.352zm-5.146 14.861L10.826 12l7.178-5.448v10.896z"></path>
  </symbol>
  <symbol xmlns="http://www.w3.org/2000/svg" viewBox="0 0 24 24" id="vue-dot-js">
    <title>Vue.js icon</title>
    <path d="M24 1.61h-9.94L12 5.16 9.94 1.61H0l12 20.78zM12 14.08L5.16 2.23h4.43L12 6.41l2.41-4.18h4.43z"></path>
  </symbol>
  <symbol xmlns="http://www.w3.org/2000/svg" viewBox="0 0 512 512" id="wordpress">
    <path d="M41.073 152.466a10.2 10.2 0 00-18.895-.657C7.468 184.791.009 219.844.009 255.99c0 48.964 13.875 96.559 40.124 137.639 25.548 39.983 61.564 72.053 104.158 92.743a10.194 10.194 0 0011.29-1.604 10.2 10.2 0 002.747-11.068L41.073 152.466zM20.408 255.99c0-24.264 3.652-47.994 10.883-70.837l98.5 269.854C61.706 412.039 20.408 337.973 20.408 255.99zm324.968 224.775l-75.473-206.771a10.2 10.2 0 00-9.58-6.702h-.096a10.203 10.203 0 00-9.55 6.88l-73.753 214.293a10.195 10.195 0 006.766 13.104A256.135 256.135 0 00256.001 512c29.053 0 57.656-4.883 85.015-14.514a10.204 10.204 0 006.226-6.212 10.194 10.194 0 00-.922-8.747c-.423-.691-.726-1.255-.944-1.762zm-89.375 10.837a235.616 235.616 0 01-56.238-6.818l60.841-176.773 63.36 173.59c-22.027 6.64-44.838 10.001-67.963 10.001z"></path>
    <path d="M373.292 403.888c4.314 0 8.167-2.717 9.612-6.788l27.138-76.438c13.018-33.396 19.346-60.555 19.346-83.022 0-33.87-10.023-51.413-18.869-66.891a10.448 10.448 0 00-.167-.283c-.982-1.597-1.959-3.175-2.926-4.737-10.569-17.065-19.698-31.803-19.698-47.571 0-16.074 11.879-33.424 31.069-33.424.317 0 .804.041 1.321.085.404.034.805.067 1.209.093 4.329.281 8.341-2.2 10.038-6.179a10.2 10.2 0 00-2.492-11.52C381.573 23.87 320.18 0 256.001 0 169.666 0 89.708 43.127 42.115 115.365a10.199 10.199 0 008.179 15.805c6.281.208 11.719.314 16.16.314 23.686 0 58.376-2.55 65.182-3.068 1.089 1.962 1.193 6.64.137 8.39-2.685.3-14.319 1.553-26.893 2.209a10.196 10.196 0 00-9.137 13.433l80.48 239.565a10.198 10.198 0 009.668 6.951h.011a10.2 10.2 0 009.665-6.973l53.793-161.323a10.2 10.2 0 00-.122-6.8l-29.269-78.243a10.2 10.2 0 00-8.959-6.608c-11.584-.675-22.772-1.988-24.791-2.231-.919-1.946-.707-6.437.377-8.368 7.002.524 42.099 3.064 64.336 3.064 23.69 0 58.382-2.55 65.184-3.068 1.09 1.961 1.196 6.641.139 8.389-2.677.3-14.328 1.554-26.896 2.211a10.2 10.2 0 00-9.123 13.478l83.404 244.49a10.2 10.2 0 009.59 6.906h.062zM303.83 158.48c8.698-.708 14.988-1.437 15.375-1.483 11.726-1.386 19.321-12.743 18.061-27.005-1.206-13.633-10.034-22.696-21.423-22.014l-.198.013c-.395.031-39.714 3.092-64.716 3.092-23.477 0-63.551-3.063-63.953-3.093a5.5 5.5 0 00-.184-.012c-11.588-.695-20.652 9.083-21.489 23.228-.836 14.126 6.861 24.914 18.351 25.817 1.624.197 9.756 1.164 19.509 1.907l25.701 68.706-43.012 128.993-66.564-198.143c8.736-.709 15.053-1.442 15.444-1.488 11.724-1.386 19.316-12.747 18.055-27.012-1.207-13.629-10.032-22.697-21.419-22.007l-.198.013c-.374.031-35.884 2.795-60.879 3.071 44.547-57.103 112.646-90.666 185.71-90.666 51.924 0 101.868 16.978 142.757 48.187-18.452 8.187-31.428 27.326-31.428 49.574 0 21.573 11.053 39.419 22.755 58.312.927 1.497 1.864 3.01 2.806 4.541 8.29 14.509 16.097 28.269 16.097 56.629 0 19.642-6.058 45.128-18.008 75.755-.038.098-.074.196-.109.295l-17.388 48.972L303.83 158.48z"></path>
    <path d="M480.631 133.175a10.205 10.205 0 00-12.133-4.786 10.202 10.202 0 00-6.917 11.059c1.038 7.665 1.566 15.707 1.566 23.901 0 26.824-5.711 53.594-17.971 84.247-.06.15-.116.302-.169.454l-75.07 217.056a10.201 10.201 0 009.643 13.532 10.17 10.17 0 005.132-1.388c38.017-22.163 69.889-53.921 92.171-91.842 22.969-39.088 35.109-83.839 35.109-129.417-.001-42.904-10.845-85.374-31.361-122.816zm-81.473 309.854l65.051-188.086c9.331-23.375 15.137-44.781 17.736-65.726a236.37 236.37 0 019.65 66.774c0 73.498-34.797 142.771-92.437 187.038zm-136.872-73.295c-5.342-1.782-11.119 1.108-12.901 6.451l-1.36 4.079c-1.781 5.343 1.108 11.119 6.451 12.901 1.07.357 2.157.526 3.226.526 4.27 0 8.25-2.703 9.675-6.977l1.36-4.079c1.781-5.343-1.108-11.119-6.451-12.901zm-12.579 37.738c-5.344-1.786-11.119 1.108-12.901 6.45l-16.999 50.996c-1.781 5.343 1.108 11.119 6.451 12.9a10.15 10.15 0 003.226.527c4.27 0 8.25-2.703 9.675-6.977l16.998-50.996c1.782-5.343-1.107-11.119-6.45-12.9z"></path>
  </symbol>
  <symbol xmlns="http://www.w3.org/2000/svg" viewBox="0 0 24 24" id="youtube">
    <title>YouTube icon</title>
    <path d="M23.498 6.186a3.016 3.016 0 00-2.122-2.136C19.505 3.545 12 3.545 12 3.545s-7.505 0-9.377.505A3.017 3.017 0 00.502 6.186C0 8.07 0 12 0 12s0 3.93.502 5.814a3.016 3.016 0 002.122 2.136c1.871.505 9.376.505 9.376.505s7.505 0 9.377-.505a3.015 3.015 0 002.122-2.136C24 15.93 24 12 24 12s0-3.93-.502-5.814zM9.545 15.568V8.432L15.818 12l-6.273 3.568z"></path>
  </symbol>
  <symbol xmlns="http://www.w3.org/2000/svg" viewBox="0 0 24 24" id="adobeaftereffects">
    <title>Adobe After Effects icon</title>
    <path d="M8.54 10.73c-.1-.31-.19-.61-.29-.92s-.19-.6-.27-.89c-.08-.28-.15-.54-.22-.78h-.02c-.09.43-.2.86-.34 1.29-.15.48-.3.98-.46 1.48-.13.51-.29.98-.44 1.4h2.54c-.06-.21-.14-.46-.23-.72-.09-.27-.18-.56-.27-.86zm8.58-.29c-.55-.03-1.07.26-1.33.76-.12.23-.19.47-.22.72h2.109c.26 0 .45 0 .57-.01.08-.01.16-.03.23-.08v-.1a1.32 1.32 0 00-1.359-1.29zM19.75.3H4.25C1.9.3 0 2.2 0 4.55v14.9c0 2.35 1.9 4.25 4.25 4.25h15.5c2.35 0 4.25-1.9 4.25-4.25V4.55C24 2.2 22.1.3 19.75.3zm-7.04 16.511h-2.09c-.07.01-.14-.041-.16-.11l-.82-2.4H5.92l-.76 2.36c-.02.09-.1.15-.19.14H3.09c-.11 0-.14-.06-.11-.18L6.2 7.39c.03-.1.06-.19.1-.31.04-.21.06-.43.06-.65-.01-.05.03-.1.08-.11h2.59c.07 0 .12.03.13.08l3.65 10.25c.03.11.001.161-.1.161zm7.851-3.991c-.021.189-.031.33-.041.42-.01.07-.069.13-.14.13-.06 0-.17.01-.33.021-.159.02-.35.029-.579.029-.23 0-.471-.04-.73-.04h-3.17c.039.31.14.62.31.89a1.6 1.6 0 00.729.601c.4.17.841.26 1.281.25.35-.011.699-.04 1.039-.11a3.67 3.67 0 00.891-.23c.05-.039.08-.02.08.08v1.531c0 .039-.01.08-.021.119a.242.242 0 01-.069.07c-.32.14-.65.24-1 .3-.471.09-.94.13-1.42.12-.761 0-1.4-.12-1.92-.35a3.391 3.391 0 01-1.261-.95c-.319-.39-.55-.83-.69-1.31a5.115 5.115 0 01-.209-1.461c0-.539.08-1.07.25-1.59.16-.5.41-.96.75-1.37.33-.4.739-.72 1.209-.95.471-.23 1.03-.31 1.67-.31a3.61 3.61 0 011.55.31c.41.18.77.45 1.05.8.26.34.47.72.601 1.14.129.4.189.81.189 1.22 0 .24-.01.45-.019.64z"></path>
  </symbol>
  <symbol xmlns="http://www.w3.org/2000/svg" viewBox="0 0 24 24" id="adobeaudition">
    <title>Adobe Audition icon</title>
    <path d="M19.75.3H4.25C1.9.3 0 2.2 0 4.55v14.9c0 2.35 1.9 4.25 4.25 4.25h15.5c2.35 0 4.25-1.9 4.25-4.25V4.55C24 2.2 22.1.3 19.75.3zM12.5 16.8h-2.09c-.07.011-.14-.04-.16-.11l-.82-2.39H5.71l-.76 2.36c-.02.09-.1.15-.19.14H2.88c-.11 0-.14-.06-.11-.18l3.22-9.24c.03-.1.06-.21.1-.33.05-.21.08-.42.08-.64-.01-.05.03-.1.08-.11h2.59c.07 0 .12.03.13.08l3.63 10.261c.03.109 0 .159-.1.159zm7.75.011h-1.721a.189.189 0 01-.189-.11c-.02-.08-.04-.171-.061-.25-.02-.07-.02-.14-.02-.21-.32.289-.71.5-1.13.619-.36.101-.739.15-1.11.15-.369 0-.74-.05-1.09-.17a2.08 2.08 0 01-.85-.55c-.26-.28-.45-.61-.561-.97a4.561 4.561 0 01-.199-1.42V8.94a.112.112 0 01.1-.13h1.939c.061-.01.121.03.131.1v4.731c0 .439.1.789.289 1.039.191.25.58.381 1.031.381.229 0 .459-.041.68-.121.23-.08.439-.189.63-.33V8.92c0-.07.05-.11.14-.11h1.91c.051-.01.109.03.109.08v6.16c0 .271 0 .511.011.72.01.211.021.391.03.551.02.16.029.25.039.359.012.09-.028.131-.108.131zM8.33 10.73c-.1-.31-.19-.61-.29-.92s-.19-.6-.27-.89c-.08-.28-.15-.54-.22-.78h-.02c-.09.43-.2.86-.34 1.29-.15.48-.3.98-.46 1.48-.13.51-.29.98-.44 1.4h2.54c-.06-.21-.14-.46-.23-.72-.09-.27-.18-.56-.27-.86z"></path>
  </symbol>
  <symbol xmlns="http://www.w3.org/2000/svg" viewBox="0 0 24 24" id="adobecreativecloud">
    <title>Adobe Creative Cloud icon</title>
    <path d="M14.782 3.153c-.231.02-.472.04-.703.07a8.453 8.453 0 00-2.832.834 8.951 8.951 0 00-2.46 1.777c-.03.04-.09.06-.141.05a7.44 7.44 0 00-1.496-.07 7.424 7.424 0 00-2.932.763c-1.768.884-3.013 2.26-3.736 4.108a7.089 7.089 0 00-.462 2.139c0 .05-.01.09-.02.13v.773c.02.201.05.392.07.593.1.813.332 1.596.703 2.33.824 1.646 2.089 2.851 3.786 3.594a7.127 7.127 0 002.45.593c.032 0 .06.004.086.01h8.576c.183-.017.362-.035.547-.06a8.344 8.344 0 002.811-.834 8.836 8.836 0 003.646-3.304 8.187 8.187 0 001.184-3.093c.05-.34.08-.692.121-1.034 0-.05.01-.09.02-.13v-.794c-.02-.23-.05-.452-.05-.662a8.345 8.345 0 00-.834-2.812 8.952 8.952 0 00-3.324-3.645 8.245 8.245 0 00-3.072-1.175c-.362-.06-.713-.09-1.075-.13-.05 0-.09-.01-.14-.02zm.369 1.693c2.126.005 3.93.826 5.395 2.455a6.93 6.93 0 011.616 3.323c.15.764.181 1.547.07 2.32-.19 1.346-.702 2.55-1.576 3.605a7.082 7.082 0 01-3.997 2.45 7.297 7.297 0 01-2.56.1c-1.095-.14-2.099-.501-3.003-1.154a5.2 5.2 0 01-.672-.573c-1.226-1.205-2.44-2.42-3.666-3.625-.301-.3-.321-.632-.18-.934a.822.822 0 01.863-.472c.21.02.372.141.522.292 1.105 1.114 2.2 2.209 3.304 3.324a5.263 5.263 0 003.093 1.536c1.948.261 3.605-.341 4.92-1.798.713-.793 1.145-1.747 1.326-2.811.26-1.587-.11-3.013-1.095-4.268-.873-1.115-2.018-1.808-3.404-2.059-1.416-.25-2.751.02-3.966.794-.03.02-.1.03-.131.01a9.04 9.04 0 00-1.406-.854s-.01-.01-.02-.03a6.603 6.603 0 011.255-.823 6.646 6.646 0 012.641-.784 8.45 8.45 0 01.67-.024zM7.546 7.509c1.455-.024 2.791.525 3.982 1.63.854.802 1.637 1.636 2.46 2.47.231.23.281.522.171.833-.11.311-.362.462-.683.512a.722.722 0 01-.632-.23c-.784-.784-1.567-1.557-2.34-2.35-.633-.653-1.386-1.025-2.27-1.186-1.958-.351-3.936.784-4.639 2.641-.904 2.36.522 5.031 2.982 5.594.482.11.995.11 1.497.1.14-.01.22.04.32.13.483.473.995.945 1.497 1.416.03.03.07.06.1.09-.06 0-.1.01-.14.01h-2.3a5.833 5.833 0 01-5.693-4.568c-.653-2.942 1.034-5.925 3.926-6.798a6.33 6.33 0 011.762-.294z"></path>
  </symbol>
  <symbol xmlns="http://www.w3.org/2000/svg" viewBox="0 0 24 24" id="adobeillustrator">
    <title>Adobe Illustrator icon</title>
    <path d="M10.53 10.73c-.1-.31-.19-.61-.29-.92-.1-.31-.19-.6-.27-.89-.08-.28-.15-.54-.22-.78h-.02c-.09.43-.2.86-.34 1.29-.15.48-.3.98-.46 1.48-.14.51-.29.98-.44 1.4h2.54c-.06-.211-.14-.46-.23-.721-.09-.269-.18-.559-.27-.859zM19.75.3H4.25C1.9.3 0 2.2 0 4.55v14.9c0 2.35 1.9 4.25 4.25 4.25h15.5c2.35 0 4.25-1.9 4.25-4.25V4.55C24 2.2 22.1.3 19.75.3zM14.7 16.83h-2.091c-.069.01-.139-.04-.159-.11l-.82-2.38H7.91l-.76 2.35c-.02.09-.1.15-.19.141H5.08c-.11 0-.14-.061-.11-.18L8.19 7.38c.03-.1.06-.21.1-.33.04-.21.06-.43.06-.65-.01-.05.03-.1.08-.11h2.59c.08 0 .12.03.13.08l3.65 10.3c.03.109 0 .16-.1.16zm3.4-.15c0 .11-.039.16-.129.16H16.01c-.1 0-.15-.061-.15-.16v-7.7c0-.1.041-.14.131-.14h1.98c.09 0 .129.05.129.14v7.7zm-.209-9.03a1.18 1.18 0 01-.911.35c-.33.01-.65-.12-.891-.35a1.3 1.3 0 01-.34-.92c-.01-.34.12-.66.359-.89.242-.23.562-.35.892-.35.391 0 .689.12.91.35.22.24.34.56.33.89.01.34-.11.67-.349.92z"></path>
  </symbol>
  <symbol xmlns="http://www.w3.org/2000/svg" viewBox="0 0 24 24" id="adobephotoshop">
    <title>Adobe Photoshop icon</title>
    <path d="M9.85 8.42c-.37-.15-.77-.21-1.18-.2-.26 0-.49 0-.68.01-.2-.01-.34 0-.41.01v3.36c.14.01.27.02.39.02h.53c.39 0 .78-.06 1.15-.18.32-.09.6-.28.82-.53.21-.25.31-.59.31-1.03.01-.31-.07-.62-.23-.89a1.45 1.45 0 00-.7-.57zM19.75.3H4.25C1.9.3 0 2.2 0 4.55v14.899c0 2.35 1.9 4.25 4.25 4.25h15.5c2.35 0 4.25-1.9 4.25-4.25V4.55C24 2.2 22.1.3 19.75.3zm-7.391 11.65c-.399.56-.959.98-1.609 1.22-.68.25-1.43.34-2.25.34-.24 0-.4 0-.5-.01s-.24-.01-.43-.01v3.209c.01.07-.04.131-.11.141H5.52c-.08 0-.12-.041-.12-.131V6.42c0-.07.03-.11.1-.11.17 0 .33 0 .56-.01.24-.01.49-.01.76-.02s.56-.01.87-.02c.31-.01.61-.01.91-.01.82 0 1.5.1 2.06.31.5.17.96.45 1.34.82.32.32.57.71.73 1.14.149.42.229.85.229 1.3.001.86-.199 1.57-.6 2.13zm7.091 3.89c-.28.4-.671.709-1.12.891-.49.209-1.09.318-1.811.318-.459 0-.91-.039-1.359-.129-.35-.061-.7-.17-1.02-.32-.07-.039-.121-.109-.111-.189v-1.74c0-.029.011-.07.041-.09.029-.02.06-.01.09.01.39.23.8.391 1.24.49.379.1.779.15 1.18.15.38 0 .65-.051.83-.141.16-.07.27-.24.27-.42 0-.141-.08-.27-.24-.4-.16-.129-.489-.279-.979-.471-.51-.18-.979-.42-1.42-.719a2.625 2.625 0 01-.761-.85 2.158 2.158 0 01-.229-1.021c0-.43.12-.84.341-1.21.25-.4.619-.72 1.049-.92.469-.239 1.059-.349 1.769-.349.41 0 .83.03 1.24.09.3.04.59.12.86.23.039.01.08.05.1.09.01.04.02.08.02.12v1.63c0 .04-.02.08-.05.1-.09.02-.14.02-.18 0-.3-.16-.62-.27-.96-.34-.37-.08-.74-.13-1.12-.13-.2-.01-.41.02-.601.07-.129.03-.24.1-.31.2-.05.08-.08.18-.08.27s.04.18.101.26c.09.11.209.2.34.27.229.12.47.23.709.33.541.18 1.061.43 1.541.73.33.209.6.49.789.83.16.318.24.67.23 1.029.011.471-.129.94-.389 1.331z"></path>
  </symbol>
  <symbol xmlns="http://www.w3.org/2000/svg" viewBox="0 0 24 24" id="adobepremierepro">
    <title>Aseprite icon</title>
    <path d="M4.006 0v1.6h15.988V0zm15.988 1.6v1.6h1.6V1.6zm1.6 1.6v14.4h-1.6v1.6H4.006v-1.6h-1.6V3.2H.809v17.6h1.599v1.6h1.599V24h15.988v-1.6h1.6v-1.6h1.598V3.2zm-19.187 0h1.599V1.6h-1.6zm4.796 3.2v6.4h1.6V6.4zm7.995 0v6.4h1.599V6.4z"></path>
  </symbol>
  <symbol xmlns="http://www.w3.org/2000/svg" viewBox="0 0 24 24" id="aseprite">
    <title>Adobe Premiere Pro icon</title>
    <path d="M10.15 8.42a2.93 2.93 0 00-1.18-.2 13.9 13.9 0 00-1.09.02v3.36l.39.02h.53c.39 0 .78-.06 1.15-.18.32-.09.6-.28.82-.53.21-.25.31-.59.31-1.03a1.45 1.45 0 00-.93-1.46zM19.75.3H4.25A4.25 4.25 0 000 4.55v14.9c0 2.35 1.9 4.25 4.25 4.25h15.5c2.35 0 4.25-1.9 4.25-4.25V4.55C24 2.2 22.1.3 19.75.3zm-7.09 11.65c-.4.56-.96.98-1.61 1.22-.68.25-1.43.34-2.25.34l-.5-.01-.43-.01v3.21a.12.12 0 01-.11.14H5.82c-.08 0-.12-.04-.12-.13V6.42c0-.07.03-.11.1-.11l.56-.01.76-.02.87-.02.91-.01c.82 0 1.5.1 2.06.31.5.17.96.45 1.34.82.32.32.57.71.73 1.14.15.42.23.85.23 1.3 0 .86-.2 1.57-.6 2.13zm6.82-3.15v1.95c0 .08-.05.11-.16.11a4.35 4.35 0 00-1.92.37c-.19.09-.37.21-.51.37v5.1c0 .1-.04.14-.13.14h-1.97a.14.14 0 01-.16-.12v-5.58l-.01-.75-.02-.78c0-.23-.02-.45-.04-.68a.1.1 0 01.07-.11h1.78c.1 0 .18.07.2.16a3.03 3.03 0 01.13.92c.3-.35.67-.64 1.08-.86a3.1 3.1 0 011.52-.39c.07-.01.13.04.14.11v.04z"></path>
  </symbol>
  <symbol xmlns="http://www.w3.org/2000/svg" viewBox="0 0 24 24" id="behance">
    <title>Behance icon</title>
    <path d="M0 4.48v14.763h7.155a7.52 7.52 0 001.93-.248 5.148 5.148 0 001.68-.766 3.767 3.767 0 001.167-1.337c.286-.542.43-1.187.43-1.935 0-.924-.22-1.711-.668-2.37-.446-.654-1.119-1.113-2.028-1.374.668-.316 1.166-.723 1.506-1.218.338-.496.506-1.117.506-1.86 0-.688-.112-1.268-.337-1.732a2.86 2.86 0 00-.963-1.127 4.202 4.202 0 00-1.492-.608A9.092 9.092 0 006.96 4.48zm15.667.99v1.457h5.985V5.471zM3.251 6.996h3.04c.288 0 .569.02.836.073.273.046.508.134.716.26.21.12.376.292.501.512.121.22.181.504.181.848 0 .619-.181 1.07-.555 1.343-.378.277-.854.414-1.43.414H3.25zM18.796 8.25c-.82 0-1.559.146-2.23.436-.67.29-1.246.688-1.731 1.192a5.247 5.247 0 00-1.12 1.79 6.27 6.27 0 00-.395 2.236c0 .827.129 1.59.384 2.28.258.691.62 1.281 1.086 1.78a4.84 4.84 0 001.726 1.15c.68.269 1.438.405 2.28.405 1.208 0 2.244-.277 3.095-.833.86-.553 1.49-1.471 1.906-2.757h-2.585c-.1.33-.36.649-.784.946-.43.3-.942.45-1.534.45-.824 0-1.46-.217-1.899-.647-.441-.43-.727-1.229-.727-2.074h7.713a7.571 7.571 0 00-.204-2.38 5.795 5.795 0 00-.94-2.029 4.734 4.734 0 00-1.666-1.416c-.68-.354-1.47-.529-2.375-.529zm-.089 2.217c.721 0 1.313.21 1.661.595.35.39.607.944.677 1.692h-4.777a3.32 3.32 0 01.134-.705c.075-.266.204-.516.394-.753.19-.232.44-.43.744-.59.31-.16.698-.239 1.167-.239zM3.251 12.664h3.533c.7 0 1.269.16 1.695.484.426.328.64.868.64 1.629 0 .388-.062.71-.194.956-.13.25-.31.447-.528.59a2.14 2.14 0 01-.766.314 4.17 4.17 0 01-.911.092H3.25z"></path>
  </symbol>
  <symbol xmlns="http://www.w3.org/2000/svg" viewBox="0 0 51 51" id="chevron">
    <circle cx="25.5" cy="25.5" r="25.5" fill="#393939"></circle>
    <rect x="24.4" y="27.9" width="1.6" height="15.24" rx=".8" transform="rotate(-39 11.114 37.674)"></rect>
    <rect x="33.3" y="27.9" width="1.6" height="15.24" rx=".8" transform="rotate(37.3 44.444 24.605)"></rect>
  </symbol>
  <symbol xmlns="http://www.w3.org/2000/svg" viewBox="0 0 501.656 501.656" id="clock">
    <path d="M342.512 328h-200a8 8 0 00-5.656 2.344l-96 96 11.312 11.312L145.824 344h187.888c-1.664 9.496-6.888 24-23.2 24h-88v16h88c31.64 0 40-31.4 40-48a8 8 0 00-8-8z"></path>
    <path d="M444.168 274.344a8 8 0 00-11.312 0l-72 72 11.312 11.312 65.712-65.712c10.828 14.37 8.629 34.68-5.024 46.4L339.2 432H174.512a8 8 0 00-5.656 2.344l-56 56 11.312 11.312L177.824 448h164.688a8 8 0 005.656-2.344l96-96c29.792-29.792 13.024-62.288 0-75.312zM262.512 0c-83.947 0-152 68.053-152 152s68.053 152 152 152c83.909-.093 151.907-68.091 152-152 0-83.947-68.053-152-152-152zm0 288c-75.111 0-136-60.889-136-136s60.89-136 136-136c75.076.084 135.916 60.924 136 136 0 75.111-60.889 136-136 136z"></path>
    <path d="M262.512 40c-61.856 0-112 50.144-112 112s50.145 112 112 112c61.828-.066 111.934-50.172 112-112 0-61.856-50.144-112-112-112zm8 207.666V224h-16v23.666c-46.637-3.848-83.817-41.028-87.666-87.666h23.666v-16h-23.666c3.849-46.637 41.029-83.817 87.666-87.666V80h16V56.343c46.612 3.893 83.764 41.045 87.657 87.657h-23.657v16h23.666c-3.848 46.637-41.028 83.817-87.666 87.666z"></path>
    <path d="M284.18 162.33a23.909 23.909 0 002.333-10.33c0-10.449-6.68-19.334-16-22.629V96h-16v33.371c-9.32 3.295-16 12.18-16 22.629-.001 13.255 10.745 24 23.999 24 3.711 0 7.225-.843 10.362-2.347l23.977 23.977 11.314-11.314-23.985-23.986zM262.512 160a8 8 0 110-16 8 8 0 010 16z"></path>
  </symbol>
  <symbol xmlns="http://www.w3.org/2000/svg" viewBox="0 0 64 64" id="computer">
    <path d="M13.293 14.293l-3 3a1 1 0 000 1.414l3 3 1.414-1.414L12.414 18l2.293-2.293zm2.763 7.359l2.999-7.998 1.872.702-2.999 7.998zm7.651.055l3-3a1 1 0 000-1.414l-3-3-1.414 1.414L24.586 18l-2.293 2.293zM10 26h4v2h-4zm6 0h10v2H16zm-4 4h4v2h-4zm6 0h10v2H18zm12 0h2v2h-2zm-18 4h4v2h-4zm6 0h10v2H18zm12 0h2v2h-2zm31.142-20.99l-2.682-.383a10.86 10.86 0 00-.679-1.639l1.625-2.166a1 1 0 00-.093-1.307l-2.828-2.828a1 1 0 00-1.306-.093l-2.167 1.624a10.9 10.9 0 00-1.639-.678l-.383-2.682A1 1 0 0050 2h-4a1 1 0 00-.99.858l-.383 2.682a10.855 10.855 0 00-1.639.678l-2.167-1.624a1 1 0 00-1.306.093l-2.828 2.828a1 1 0 00-.093 1.307l1.625 2.166a10.86 10.86 0 00-.679 1.639l-2.682.383A1 1 0 0034 14v4a1 1 0 00.858.99l2.682.383a10.86 10.86 0 00.679 1.639l-1.625 2.166a1 1 0 00.093 1.307l2.828 2.828a1 1 0 001.306.093l2.167-1.624a10.855 10.855 0 001.639.678l.383 2.682A1 1 0 0046 30h4a1 1 0 00.99-.858l.383-2.682a10.9 10.9 0 001.639-.678l2.167 1.624a1 1 0 001.306-.093l2.828-2.828a1 1 0 00.093-1.307l-1.625-2.166a10.86 10.86 0 00.679-1.639l2.682-.383A1 1 0 0062 18v-4a1 1 0 00-.858-.99zM60 17.133l-2.463.352a1 1 0 00-.827.742 8.923 8.923 0 01-.977 2.357 1 1 0 00.061 1.111l1.492 1.99-1.6 1.6-1.991-1.492a1 1 0 00-1.11-.06 8.859 8.859 0 01-2.356.975 1 1 0 00-.744.828L49.133 28h-2.266l-.351-2.463a1 1 0 00-.744-.828 8.859 8.859 0 01-2.356-.975 1 1 0 00-1.11.06l-1.991 1.492-1.6-1.6 1.492-1.99a1 1 0 00.061-1.111 8.923 8.923 0 01-.977-2.357 1 1 0 00-.827-.742L36 17.133v-2.266l2.463-.352a1 1 0 00.827-.742 8.923 8.923 0 01.977-2.357 1 1 0 00-.061-1.111l-1.492-1.99 1.6-1.6 1.991 1.492a1 1 0 001.11.06 8.859 8.859 0 012.356-.975 1 1 0 00.744-.828L46.867 4h2.266l.351 2.463a1 1 0 00.744.828 8.859 8.859 0 012.356.975 1 1 0 001.11-.06l1.991-1.492 1.6 1.6-1.492 1.99a1 1 0 00-.061 1.111 8.923 8.923 0 01.977 2.357 1 1 0 00.827.742l2.464.353z"></path>
    <path d="M48 10a6 6 0 106 6 6.006 6.006 0 00-6-6zm0 10a4 4 0 114-4 4 4 0 01-4 4z"></path>
    <path d="M52 40H4V15a3 3 0 013-3h28v-2H7a5.006 5.006 0 00-5 5v30a5.006 5.006 0 005 5h12.867l-.75 6H17a2 2 0 00-2 2v2a2 2 0 002 2h22a2 2 0 002-2v-2a2 2 0 00-2-2h-2.117l-.75-6H49a5.006 5.006 0 005-5V29h-2zM39 60H17v-2h22zm-4.133-4H21.133l.75-6h12.234zM49 48H7a3 3 0 01-3-3v-3h48v3a3 3 0 01-3 3z"></path>
    <path d="M46 44h2v2h-2z"></path>
  </symbol>
  <symbol xmlns="http://www.w3.org/2000/svg" viewBox="0 0 24 24" id="cplusplus">
    <title>C++ icon</title>
    <path d="M22.394 6c-.167-.29-.398-.543-.652-.69L12.926.22c-.509-.294-1.34-.294-1.848 0L2.26 5.31c-.508.293-.923 1.013-.923 1.6v10.18c0 .294.104.62.271.91.167.29.398.543.652.69l8.816 5.09c.508.293 1.34.293 1.848 0l8.816-5.09c.254-.147.485-.4.652-.69.167-.29.27-.616.27-.91V6.91c.003-.294-.1-.62-.268-.91zM12 19.11c-3.92 0-7.109-3.19-7.109-7.11 0-3.92 3.19-7.11 7.11-7.11a7.133 7.133 0 016.156 3.553l-3.076 1.78a3.567 3.567 0 00-3.08-1.78A3.56 3.56 0 008.444 12 3.56 3.56 0 0012 15.555a3.57 3.57 0 003.08-1.778l3.078 1.78A7.135 7.135 0 0112 19.11zm7.11-6.715h-.79v.79h-.79v-.79h-.79v-.79h.79v-.79h.79v.79h.79zm2.962 0h-.79v.79h-.79v-.79h-.79v-.79h.79v-.79h.79v.79h.79z"></path>
  </symbol>
  <symbol xmlns="http://www.w3.org/2000/svg" viewBox="0 0 24 24" id="css3">
    <title>CSS3 icon</title>
    <path d="M1.5 0h21l-1.91 21.563L11.977 24l-8.565-2.438L1.5 0zm17.09 4.413L5.41 4.41l.213 2.622 10.125.002-.255 2.716h-6.64l.24 2.573h6.182l-.366 3.523-2.91.804-2.956-.81-.188-2.11h-2.61l.29 3.855L12 19.288l5.373-1.53L18.59 4.414z"></path>
  </symbol>
  <symbol xmlns="http://www.w3.org/2000/svg" viewBox="0 0 512 512" id="easy">
    <path d="M184 304H72a8 8 0 00-8 8v96a8 8 0 008 8h112a8 8 0 008-8v-96a8 8 0 00-8-8zm-8 96H80v-80h96z"></path>
    <path d="M96 336h32v16H96zm32 32h32v16h-32z"></path>
    <path d="M380 64H136V24a8 8 0 00-12.878-6.34l-104 80a8 8 0 000 12.68l104 80A8 8 0 00136 184v-40h216a64.072 64.072 0 0164 64v144a63.897 63.897 0 01-48 61.993V232a8 8 0 00-8-8H24a8 8 0 00-8 8v256a8 8 0 008 8h356a116.131 116.131 0 00116-116V180A116.131 116.131 0 00380 64zm-28 176v192H240V240zm-208 0v32h-32v-32zm-112 0h64v40a8 8 0 008 8h48a8 8 0 008-8v-40h64v192H32zm448 140a100.113 100.113 0 01-100 100H32v-32h328a8 8 0 008-8v-9.605A79.864 79.864 0 00432 352V208a80.09 80.09 0 00-80-80H128a8 8 0 00-8 8v31.753L37.121 104 120 40.247V72a8 8 0 008 8h252a100.113 100.113 0 01100 100z"></path>
    <path d="M320 400h16v16h-16zm-32 0h16v16h-16zm-32 0h16v16h-16z"></path>
  </symbol>
</svg>